<?xml version="1.0" encoding="UTF-8"?>
<svg width="198px" height="199px" viewBox="0 0 198 199" version="1.1" xmlns="http://www.w3.org/2000/svg" xmlns:xlink="http://www.w3.org/1999/xlink">
    <!-- Generator: Sketch 46.2 (44496) - http://www.bohemiancoding.com/sketch -->
    <title>Group 7</title>
    <desc>Created with Sketch.</desc>
    <defs></defs>
    <g id="Page-1" stroke="none" stroke-width="1" fill="none" fill-rule="evenodd">
        <g id="Group-7" transform="translate(2.000000, 2.000000)">
            <path d="M20.5098517,65 L52.5778517,82.252 C52.5778517,82.252 44.8828517,102.401 52.0588517,115.088 C41.5858517,118.856 20.5748517,127.129 20.5748517,127.129 C20.5748517,127.129 3.5748517,109.571 20.5098517,65" id="Fill-26" fill="#FEA94B"></path>
            <path d="M69,176.697 L83.287,147.363 C83.287,147.363 110.015,152.437 115.83,146 C119.396,153.041 128.52,177.806 128.52,177.806 C128.52,177.806 92.621,188.164 69,176.697" id="Fill-27" fill="#FEA94B"></path>
            <path d="M179.223,121.157 C181.435,113.67 182.603,84.778 176.378,69 C170.059,70.412 151.049,75.42 147,77.948 C149.398,87.78 150.231,111.002 150.231,111.002 L179.223,121.157" id="Fill-28" fill="#FEA94B"></path>
            <path d="M83.891831,45.617705 C83.891831,45.617705 72.172831,23.865705 74.245831,16.121705 C97.437831,0.543704964 130.220831,19.611705 130.220831,19.611705 L128.359831,24.746705 L120.426831,50.426705 C120.426831,50.426705 107.836831,47.258705 101.232831,47.418705 C97.017831,47.521705 85.168831,49.453705 85.168831,49.453705 L83.891831,45.617705" id="Fill-29" fill="#FEA94B"></path>
            <path d="M163.652367,45.8730037 C155.986367,35.3200037 139.722367,25.2910037 128.310367,19.3180037 C106.141367,7.71100368 76.0743671,10.8560037 55.2603671,25.0260037 C26.2073671,44.8050037 8.16536713,74.5940037 14.0103671,111.465004 C16.0213671,124.145004 24.3263671,139.598004 31.8673671,149.781004 C40.7223671,161.738004 53.7313671,170.983004 67.6763671,176.133004 C152.805367,207.580004 213.854367,114.998004 163.652367,45.8730037 Z M48.9653671,94.0650037 C45.9673671,112.723004 58.1603671,129.633004 72.2553671,140.002004 C88.4033671,151.885004 106.735367,151.975004 124.235367,141.969004 C147.373367,128.742004 156.519367,102.354004 146.085367,79.5570037 C123.155367,29.4830037 57.1933671,42.8730037 48.9653671,94.0650037 Z M21.5373671,66.3610037 C29.6483671,67.0060037 44.2683671,79.5080037 51.1323671,81.4690037 L21.5373671,66.3610037 Z M85.1623671,50.1720037 C81.6593671,38.6470037 75.9773671,30.0160037 72.5353671,18.4880037 L85.1623671,50.1720037 Z M19.0953671,127.863004 C23.4373671,123.744004 32.5883671,122.717004 38.2483671,120.565004 C42.7853671,118.840004 47.2933671,117.152004 51.6353671,114.949004 L19.0953671,127.863004 Z M68.2843671,175.817004 C75.0043671,167.360004 77.0973671,155.795004 83.3673671,147.305004 L68.2843671,175.817004 Z M148.520367,113.014004 C158.703367,114.057004 167.662367,119.983004 177.605367,121.977004 L148.520367,113.014004 Z M129.281367,21.2330037 C127.237367,31.5590037 123.550367,41.8420037 119.823367,51.7230037 L129.281367,21.2330037 Z M146.728367,78.5670037 C156.037367,75.2910037 166.496367,71.3790037 176.106367,69.6190037 L146.728367,78.5670037 Z M90.8593671,11.9490037 C89.6763671,-3.71499632 112.336367,-4.53699632 109.728367,12.8070037 L90.8593671,11.9490037 Z M117.080367,147.151004 C122.927367,156.068004 123.607367,168.111004 128.600367,177.748004 L117.080367,147.151004 Z M91.0703671,184.225004 C89.6143671,196.518004 110.875367,199.752004 110.875367,184.225004 L91.0703671,184.225004 Z M182.609367,90.9830037 C195.072367,90.1130037 199.046367,109.238004 184.004367,108.420004 L182.609367,90.9830037 Z M11.7313671,87.7680037 C6.02336713,87.2230037 2.31936713,88.0510037 0.675367132,93.7500037 C-2.26963287,103.973004 4.88236713,106.213004 13.1093671,104.305004 L11.7313671,87.7680037 Z M4.17236713,105.660004 C5.84536713,123.283004 13.9673671,143.610004 24.5023671,157.818004 C39.5033671,178.055004 71.7573671,191.817004 91.6133671,191.186004 L4.17236713,105.660004 Z M4.55436713,88.0180037 C4.43436713,72.8200037 11.0473671,51.1930037 30.0843671,31.8690037 C49.1203671,12.5470037 77.2483671,2.35800368 92.8473671,2.91200368 L4.55436713,88.0180037 Z M107.981367,3.63300368 C119.089367,5.23500368 144.608367,13.6640037 163.012367,31.3710037 C184.711367,52.2460037 189.587367,78.4200037 190.748367,92.6310037 L107.981367,3.63300368 Z M108.753367,192.606004 C118.410367,191.483004 141.031367,189.045004 163.360367,166.192004 C188.189367,140.779004 189.728367,123.744004 190.688367,108.760004 L108.753367,192.606004 Z" id="Stroke-30" stroke="#303954" stroke-width="3" stroke-linecap="round" stroke-linejoin="round"></path>
        </g>
    </g>
</svg>