<?xml version="1.0" encoding="UTF-8"?>
<svg width="652px" height="128px" viewBox="0 0 652 128" version="1.1" xmlns="http://www.w3.org/2000/svg" xmlns:xlink="http://www.w3.org/1999/xlink">
    <!-- Generator: Sketch 46.2 (44496) - http://www.bohemiancoding.com/sketch -->
    <title>Group 6</title>
    <desc>Created with Sketch.</desc>
    <defs></defs>
    <g id="Page-1" stroke="none" stroke-width="1" fill="none" fill-rule="evenodd">
        <g id="Desktop-HD" transform="translate(-420.000000, -3466.000000)" fill-rule="nonzero">
            <g id="Group-6" transform="translate(420.000000, 3466.000000)">
                <g id="1" transform="translate(544.000000, 0.000000)">
                    <ellipse id="Oval" fill="#D8D8D8" cx="54" cy="114.416" rx="51.312" ry="11.28"></ellipse>
                    <path d="M12.16,109.494 L11.225,106.569 C13.449,105.858 16.036,105.202 18.914,104.618 L19.524,107.627 C16.755,108.189 14.277,108.817 12.16,109.494 Z M95.826,109.489 C93.708,108.813 91.23,108.185 88.461,107.624 L89.071,104.615 C91.949,105.198 94.535,105.853 96.759,106.564 L95.826,109.489 Z M27.087,106.36 L26.67,103.318 C29.141,102.979 31.761,102.685 34.459,102.442 L34.733,105.5 C32.083,105.739 29.511,106.028 27.087,106.36 Z M80.899,106.357 C78.467,106.024 75.894,105.736 73.25,105.498 L73.524,102.44 C76.215,102.682 78.836,102.977 81.315,103.316 L80.899,106.357 Z M42.425,104.962 L42.268,101.896 C44.822,101.765 47.451,101.677 50.084,101.634 L50.135,104.704 C47.537,104.747 44.942,104.834 42.425,104.962 Z M65.56,104.961 C63.042,104.833 60.448,104.746 57.85,104.703 L57.901,101.633 C60.534,101.676 63.164,101.764 65.718,101.895 L65.56,104.961 Z M54.008,0 L0.385,114.414 C0.385,125.16 35.463,128 54.008,128 C72.537,128 107.615,125.16 107.615,114.414 L54.008,0 Z M54.008,123.395 C23.735,123.395 7.202,117.884 5.206,114.982 L54.008,10.807 L102.795,114.982 C100.799,117.883 84.265,123.395 54.008,123.395 Z" id="Shape" fill="#232323"></path>
                </g>
                <g id="10" transform="translate(363.000000, 0.000000)">
                    <ellipse id="Oval" fill="#D8D8D8" cx="56" cy="111.679" rx="53.09" ry="12.551"></ellipse>
                    <path d="M94.071,3.735 C83.881,1.322 70.355,0 56,0 C41.645,0 28.119,1.322 17.929,3.735 C6.432,6.455 0.607,10.19 0.607,14.847 L0.607,113.153 C0.607,117.81 6.432,121.545 17.929,124.265 C28.119,126.678 41.645,128 56,128 C70.355,128 83.881,126.678 94.071,124.265 C105.568,121.545 111.393,117.81 111.393,113.153 L111.393,14.847 C111.393,10.19 105.568,6.455 94.071,3.735 Z M106.782,107.404 C106.536,107.235 106.29,107.066 106.029,106.897 L104.384,109.495 C105.445,110.171 106.244,110.848 106.782,111.478 L106.782,113.153 C106.782,116.627 88.861,123.389 56,123.389 C23.139,123.389 5.218,116.626 5.218,113.153 L5.218,111.478 C5.894,110.679 7.016,109.818 8.507,108.973 L6.985,106.283 C6.339,106.652 5.755,107.021 5.218,107.405 L5.218,21.303 C8.108,23.086 12.35,24.669 17.929,25.975 C28.119,28.373 41.645,29.71 56,29.71 C70.355,29.71 83.881,28.373 94.071,25.975 C99.65,24.669 103.892,23.085 106.782,21.303 L106.782,107.404 Z M56,25.099 C23.139,25.099 5.218,18.321 5.218,14.847 C5.218,11.373 23.139,4.611 56,4.611 C88.861,4.611 106.782,11.374 106.782,14.847 C106.782,18.32 88.861,25.099 56,25.099 Z M91.228,101.318 L90.506,104.3 C93.15,104.946 95.578,105.653 97.73,106.421 L98.76,103.531 C96.499,102.732 93.979,101.979 91.228,101.318 Z M21.864,101.057 C19.144,101.687 16.608,102.394 14.317,103.147 L15.301,106.067 C17.483,105.329 19.927,104.653 22.556,104.054 L21.864,101.057 Z M75.904,98.644 L75.55,101.703 C78.132,101.995 80.668,102.364 83.081,102.779 L83.604,99.751 C81.13,99.32 78.548,98.951 75.904,98.644 Z M37.203,98.521 C34.575,98.813 31.993,99.151 29.503,99.566 L30.01,102.594 C32.438,102.194 34.974,101.856 37.541,101.58 L37.203,98.521 Z M60.442,97.568 L60.365,100.642 C62.916,100.719 65.483,100.826 67.973,100.995 L68.188,97.936 C65.637,97.752 63.039,97.645 60.442,97.568 Z M52.68,97.552 C50.082,97.598 47.485,97.706 44.934,97.859 L45.134,100.933 C47.624,100.779 50.191,100.672 52.742,100.626 L52.68,97.552 Z" id="Shape" fill="#232323"></path>
                </g>
                <g id="3">
                    <polygon id="Shape" fill="#D8D8D8" points="107.275 93.178 55 125.354 55 65.198 107.275 33.022"></polygon>
                    <path d="M55,0 L0.484,33.904 L0.484,93.901 L55,128 L109.516,93.901 L109.516,33.904 L55,0 Z M55,5.228 L100.793,33.905 L55,62.581 L9.207,33.904 L55,5.228 Z M4.965,36.697 L52.76,66.42 L52.76,121.309 L4.965,91.422 L4.965,36.697 Z M105.035,91.422 L57.24,121.309 L57.24,66.42 L105.035,36.698 L105.035,91.422 Z" id="Shape" fill="#232323"></path>
                </g>
                <g id="16" transform="translate(179.000000, 0.000000)">
                    <polygon id="Shape" fill="#D8D8D8" points="29.465 80.36 56.104 95.274 83.401 80.36 56.433 66.57"></polygon>
                    <path d="M57,0 L0.01,31.008 L0.01,96.979 L57,128 L113.99,96.978 L113.99,31.008 L57,0 Z M57,4.683 L107.714,32.299 L85.261,45.276 L57,29.895 L28.725,45.275 L6.272,32.299 L57,4.683 Z M33.064,80.403 L57,67.825 L80.922,80.39 L57,93.408 L33.064,80.403 Z M30.757,76.943 L30.757,48.86 L54.94,35.704 L54.94,64.24 L30.757,76.943 Z M59.06,64.254 L59.06,35.704 L83.229,48.86 L83.229,76.943 L59.06,64.254 Z M4.13,35.8 L26.637,48.832 L26.637,81.584 L54.94,96.978 L54.94,122.177 L4.13,94.534 L4.13,35.8 Z M109.87,94.534 L59.06,122.177 L59.06,96.978 L87.349,81.584 L87.349,48.833 L109.87,35.8 L109.87,94.534 Z" id="Shape" fill="#232323"></path>
                </g>
            </g>
        </g>
    </g>
</svg>