<?xml version="1.0" encoding="UTF-8"?>
<svg width="449px" height="245px" viewBox="0 0 449 245" version="1.1" xmlns="http://www.w3.org/2000/svg" xmlns:xlink="http://www.w3.org/1999/xlink">
    <!-- Generator: Sketch 46.2 (44496) - http://www.bohemiancoding.com/sketch -->
    <title>coding</title>
    <desc>Created with Sketch.</desc>
    <defs>
        <polygon id="path-1" points="0.999434783 0 154.739696 0 154.739696 41 0.999434783 41 0.999434783 3.23691691e-14"></polygon>
        <polygon id="path-3" points="0 107.431738 0 213.864043 449 213.864043 449 107.431738 449 0.999433511 0 0.999433511"></polygon>
        <polygon id="path-5" points="0 97.8632558 172 97.8632558 172 0 0 0"></polygon>
    </defs>
    <g id="Page-1" stroke="none" stroke-width="1" fill="none" fill-rule="evenodd">
        <g id="Desktop-HD" transform="translate(-496.000000, -220.000000)">
            <g id="coding" transform="translate(496.000000, 220.000000)">
                <path d="M299,65.75 C305.2145,65.75 310.25,70.78775 310.25,77 C310.25,83.21225 305.2145,88.25 299,88.25 C292.7855,88.25 287.75,83.21225 287.75,77 C287.75,70.78775 292.7855,65.75 299,65.75 Z M276.33575,80.11625 C277.94,80.438 279.227,81.61025 279.72425,83.1695 C280.06625,84.245 280.49375,85.28 281.00225,86.27 C281.7515,87.72575 281.675,89.465 280.766,90.82625 L279.5645,92.6285 C278.84,93.7175 278.984,95.1665 279.90875,96.09125 C280.8335,97.01825 282.2825,97.16 283.3715,96.4355 L285.1715,95.234 C286.53725,94.325 288.272,94.2485 289.73,94.99775 C290.71775,95.50625 291.755,95.936 292.8305,96.278 C294.38975,96.773 295.562,98.06225 295.8815,99.66425 L296.309,101.795 C296.5655,103.07525 297.69275,104 299,104 C300.30725,104 301.4345,103.07525 301.691,101.795 L302.1185,99.66425 C302.438,98.06225 303.61025,96.773 305.1695,96.278 C306.245,95.936 307.28225,95.50625 308.27,94.99775 C309.728,94.2485 311.46275,94.325 312.8285,95.234 L314.6285,96.4355 C315.7175,97.16 317.1665,97.01825 318.09125,96.09125 C319.016,95.1665 319.16,93.7175 318.4355,92.6285 L317.234,90.82625 C316.325,89.465 316.2485,87.72575 316.99775,86.27 C317.50625,85.28 317.93375,84.245 318.27575,83.1695 C318.773,81.61025 320.06,80.438 321.66425,80.11625 L323.795,79.691 C325.0775,79.4345 326,78.3095 326,77 C326,75.69275 325.0775,74.5655 323.795,74.309 L321.66425,73.88375 C320.06,73.562 318.773,72.38975 318.27575,70.8305 C317.93375,69.755 317.50625,68.71775 316.99775,67.73 C316.2485,66.27425 316.325,64.535 317.234,63.17375 L318.4355,61.3715 C319.16,60.2825 319.016,58.8335 318.09125,57.90875 C317.1665,56.984 315.7175,56.84 314.6285,57.5645 L312.82625,58.766 C311.46275,59.675 309.72575,59.75375 308.26775,59.00225 C307.28,58.49375 306.245,58.06625 305.1695,57.722 C303.61025,57.227 302.438,55.94 302.1185,54.33575 L301.691,52.205 C301.4345,50.92475 300.30725,50 299,50 C297.69275,50 296.5655,50.92475 296.309,52.205 L295.8815,54.33575 C295.562,55.94 294.38975,57.227 292.8305,57.722 C291.755,58.06625 290.72,58.49375 289.73225,59.00225 C288.27425,59.75375 286.53725,59.675 285.17375,58.766 L283.3715,57.5645 C282.2825,56.84 280.8335,56.984 279.90875,57.90875 C278.984,58.8335 278.84,60.2825 279.5645,61.3715 L280.766,63.17375 C281.675,64.535 281.7515,66.27425 281.00225,67.73 C280.49375,68.71775 280.06625,69.755 279.72425,70.8305 C279.227,72.38975 277.94,73.562 276.33575,73.88375 L274.205,74.309 C272.9225,74.5655 272,75.69275 272,77 C272,78.3095 272.9225,79.4345 274.205,79.691 L276.33575,80.11625 L276.33575,80.11625 Z" id="Fill-1" fill="#FFFAD3"></path>
                <path d="M299.5,68.4230769 C294.494077,68.4230769 290.423077,72.4940769 290.423077,77.5 C290.423077,82.5059231 294.494077,86.5769231 299.5,86.5769231 C304.505923,86.5769231 308.576923,82.5059231 308.576923,77.5 C308.576923,72.4940769 304.505923,68.4230769 299.5,68.4230769 Z M299.5,91.1153846 C291.991115,91.1153846 285.884615,85.0088846 285.884615,77.5 C285.884615,69.9911154 291.991115,63.8846154 299.5,63.8846154 C307.008885,63.8846154 313.115385,69.9911154 313.115385,77.5 C313.115385,85.0088846 307.008885,91.1153846 299.5,91.1153846 Z M288.044923,92.8695 C289.120538,92.8695 290.196154,93.1236538 291.187808,93.6319615 C292.077346,94.0903462 293.012269,94.4761154 293.967615,94.7801923 C296.329885,95.5313077 298.097615,97.4987308 298.580962,99.9131923 L299.009846,102.059885 C299.102885,102.522808 299.897115,102.525077 299.990154,102.059885 L300.419038,99.9131923 C300.902385,97.4987308 302.670115,95.5313077 305.034654,94.7801923 C305.987731,94.4761154 306.922654,94.0903462 307.812192,93.6319615 C310.022423,92.4973462 312.659269,92.6425769 314.703846,93.9995769 L316.5215,95.2136154 C316.714385,95.3406923 316.984423,95.3202692 317.150077,95.1500769 C317.318,94.9844231 317.342962,94.7189231 317.213615,94.5215 L315.999577,92.7038462 C314.638038,90.6592692 314.497346,88.0178846 315.631962,85.8099231 C316.090346,84.9226538 316.473846,83.9877308 316.777923,83.0346538 C317.531308,80.6701154 319.498731,78.9001154 321.913192,78.4190385 L324.059885,77.9901538 C324.293615,77.9425 324.461538,77.7382692 324.461538,77.5 C324.461538,77.264 324.293615,77.0575 324.059885,77.0098462 L321.913192,76.5809615 C319.498731,76.0998846 317.531308,74.3298846 316.777923,71.9676154 C316.473846,71.01 316.088077,70.0750769 315.631962,69.1855385 C314.497346,66.9821154 314.638038,64.3407308 315.999577,62.2984231 L317.213615,60.4785 C317.342962,60.2810769 317.318,60.0155769 317.150077,59.8499231 C316.982154,59.6842692 316.718923,59.6570385 316.523769,59.7863846 L314.701577,61.0004231 C312.654731,62.3642308 310.015615,62.5003846 307.807654,61.3657692 C306.918115,60.9073846 305.983192,60.5238846 305.032385,60.2198077 C302.670115,59.4686923 300.902385,57.5035385 300.419038,55.0868077 L299.990154,52.9401154 C299.897115,52.4771923 299.102885,52.4749231 299.009846,52.9401154 L298.580962,55.0868077 C298.097615,57.5035385 296.329885,59.4686923 293.965346,60.2198077 C293.016808,60.5238846 292.081885,60.9073846 291.190077,61.3680385 C288.984385,62.5026538 286.340731,62.3642308 284.298423,61.0004231 L282.4785,59.7863846 C282.283346,59.6570385 282.015577,59.6774615 281.849923,59.8499231 C281.682,60.0155769 281.657038,60.2810769 281.786385,60.4785 L283.000423,62.2961538 C284.361962,64.3407308 284.502654,66.9821154 283.365769,69.1878077 C282.911923,70.0750769 282.526154,71.01 282.222077,71.9676154 C281.468692,74.3298846 279.501269,76.0998846 277.086808,76.5809615 L274.940115,77.0098462 C274.706385,77.0575 274.538462,77.264 274.538462,77.5 C274.538462,77.7382692 274.706385,77.9425 274.940115,77.9901538 L277.086808,78.4190385 C279.501269,78.9001154 281.468692,80.6701154 282.222077,83.0346538 C282.526154,83.9877308 282.909654,84.9226538 283.368038,85.8121923 C284.502654,88.0178846 284.361962,90.6592692 283.000423,92.7015769 L281.786385,94.5215 C281.657038,94.7189231 281.682,94.9844231 281.849923,95.1500769 C282.017846,95.318 282.283346,95.3475 282.476231,95.2136154 L284.296154,93.9995769 C285.421692,93.2507308 286.731038,92.8695 288.044923,92.8695 Z M299.5,107 C297.108231,107 295.029615,105.298077 294.559885,102.951692 L294.131,100.805 C293.969885,100.0085 293.382154,99.3549615 292.590192,99.1053462 C291.394308,98.7241154 290.223385,98.2407692 289.113731,97.6689231 C288.369423,97.2854231 287.488962,97.324 286.812731,97.7778462 L284.995077,98.9896154 C283.002692,100.319385 280.331808,100.051615 278.641231,98.3587692 C276.950654,96.6681923 276.682885,93.9973077 278.010385,92.0049231 L279.222154,90.185 C279.673731,89.5133077 279.712308,88.6305769 279.328808,87.8862692 C278.759231,86.7743462 278.275885,85.6056923 277.894654,84.4120769 C277.642769,83.6201154 276.993769,83.0278462 276.195,82.869 L274.048308,82.4401154 C271.701923,81.9703846 270,79.8917692 270,77.5 C270,75.1082308 271.701923,73.0296154 274.048308,72.5598846 L276.195,72.131 C276.9915,71.9721538 277.642769,71.3821538 277.894654,70.5879231 C278.278154,69.3920385 278.759231,68.2233846 279.328808,67.1137308 C279.712308,66.3694231 279.671462,65.4866923 279.222154,64.8127308 L278.010385,62.9950769 C276.682885,61.0049615 276.948385,58.3318077 278.641231,56.6412308 C280.334077,54.9483846 283.0095,54.6828846 284.997346,56.0126538 L286.815,57.2221538 C287.491231,57.6737308 288.369423,57.7145769 289.113731,57.3310769 C290.232462,56.7569615 291.401115,56.2736154 292.587923,55.8969231 C293.382154,55.6427692 293.969885,54.9915 294.131,54.195 L294.559885,52.0483077 C295.029615,49.7019231 297.108231,48 299.5,48 C301.891769,48 303.970385,49.7019231 304.440115,52.0483077 L304.869,54.195 C305.030115,54.9915 305.617846,55.6427692 306.409808,55.8946538 C307.598885,56.2736154 308.767538,56.7569615 309.884,57.3288077 C310.628308,57.7145769 311.511038,57.6737308 312.185,57.2221538 L314.004923,56.0103846 C315.997308,54.6806154 318.668192,54.9483846 320.358769,56.6412308 C322.051615,58.3318077 322.317115,61.0049615 320.989615,62.9950769 L319.777846,64.815 C319.328538,65.4866923 319.287692,66.3694231 319.668923,67.1114615 C320.240769,68.2233846 320.721846,69.3920385 321.105346,70.5879231 C321.357231,71.3821538 322.0085,71.9721538 322.805,72.131 L324.951692,72.5598846 C327.298077,73.0296154 329,75.1082308 329,77.5 C329,79.8917692 327.298077,81.9703846 324.951692,82.4401154 L322.805,82.869 C322.0085,83.0278462 321.357231,83.6178462 321.105346,84.4120769 C320.724115,85.6056923 320.240769,86.7743462 319.671192,87.884 C319.287692,88.6305769 319.326269,89.5133077 319.777846,90.1872692 L320.989615,92.0049231 C322.317115,93.9973077 322.051615,96.6681923 320.358769,98.3587692 C318.665923,100.053885 315.995038,100.319385 314.002654,98.9873462 L312.187269,97.7778462 C311.513308,97.3262692 310.630577,97.2831538 309.886269,97.6689231 C308.776615,98.2407692 307.605692,98.7241154 306.412077,99.1053462 C305.617846,99.3549615 305.030115,100.0085 304.869,100.805 L304.440115,102.951692 C303.970385,105.298077 301.891769,107 299.5,107 L299.5,107 Z" id="Fill-2" fill="#A0A9B6"></path>
                <path d="M324.594685,76.3381409 L322.428427,75.904802 C319.923261,75.404972 317.990574,73.5248774 317.200554,71.0945111 C316.900575,70.1773918 316.525029,69.2854933 316.089946,68.4325723 C314.944989,66.2062651 315.086963,63.5374479 316.460912,61.4739294 L317.686016,59.6351051 C317.816541,59.4356317 317.791352,59.1673743 317.621898,59 L312.652785,63.9753724 C311.842156,64.7893158 311.759719,66.0732828 312.465012,66.9812309 C315.164821,70.4525276 316.470071,75.063345 315.542656,79.974519 C314.347321,86.2911784 309.259133,91.3857763 302.950421,92.5849098 C298.045425,93.5157859 293.438119,92.2088909 289.9689,89.5033888 C289.064384,88.797207 287.779742,88.8774549 286.969113,89.6913983 L282,94.6667707 C282.169454,94.8387305 282.435084,94.8662441 282.632016,94.730969 L284.468527,93.5043219 C285.604324,92.7476985 286.925604,92.3625083 288.251464,92.3625083 C289.336884,92.3625083 290.422303,92.6193018 291.422995,93.1328886 C292.277133,93.5731059 293.174779,93.9491248 294.090744,94.2494814 C296.511183,95.0427896 298.382043,96.9779114 298.883534,99.4793543 L299.316328,101.648342 C299.410214,102.116072 300.211684,102.118365 300.30557,101.648342 L300.738364,99.4793543 C301.239855,96.9733258 303.115294,95.0404968 305.542603,94.2448958 C306.451699,93.946832 307.347055,93.5708131 308.198903,93.1328886 C310.426989,91.9864894 313.090159,92.1309357 315.153371,93.5043219 L316.987592,94.730969 C317.182235,94.8616585 317.452444,94.8387305 317.621898,94.6667707 C317.791352,94.4993964 317.816541,94.231139 317.686016,94.0316655 L316.460912,92.1951341 C315.086963,90.1293228 314.944989,87.4605055 316.089946,85.2296128 C316.529609,84.3789846 316.902865,83.4825005 317.200554,82.5676739 C317.992864,80.1396005 319.925551,78.2617987 322.428427,77.7619686 L324.594685,77.3286298 C324.830546,77.280481 325,77.0741291 325,76.8333853 C325,76.5949343 324.830546,76.3862897 324.594685,76.3381409" id="Fill-3" fill="#FCECA5"></path>
                <path d="M285.25745,76.8016757 C285.25745,69.3229683 291.32322,63.2573822 298.802153,63.2573822 C302.542749,63.2573822 305.928925,64.7720857 308.378258,67.2236029 C308.378258,67.2236029 310.089406,65.5147645 307.834213,63.8330147 C305.3307,61.968417 302.158982,61 298.802153,61 C290.07485,61 283,68.074636 283,76.8016757 C283,80.1584031 283.968446,83.3300252 285.8331,85.8334621 C287.514901,88.088587 289.226048,86.3797486 289.226048,86.3797486 C286.774457,83.9282315 285.25745,80.5421581 285.25745,76.8016757" id="Fill-4" fill="#FCECA5"></path>
                <path d="M183.724138,36.3 L140.482759,36.3 L140.482759,34 L129.103448,34 C127.847172,34 126.827586,35.0304 126.827586,36.3 C126.827586,37.5696 127.847172,38.6 129.103448,38.6 L131.37931,38.6 C132.635586,38.6 133.655172,39.6304 133.655172,40.9 C133.655172,42.1696 132.635586,43.2 131.37931,43.2 L122.275862,43.2 C121.019586,43.2 120,44.2304 120,45.5 C120,46.7696 121.019586,47.8 122.275862,47.8 L126.827586,47.8 C128.083862,47.8 129.103448,48.8304 129.103448,50.1 C129.103448,51.3696 128.083862,52.4 126.827586,52.4 C125.57131,52.4 124.551724,53.4304 124.551724,54.7 C124.551724,55.9696 125.57131,57 126.827586,57 L140.482759,57 L140.482759,54.7 L183.724138,54.7 C184.980414,54.7 186,53.6696 186,52.4 L186,38.6 C186,37.3304 184.980414,36.3 183.724138,36.3" id="Fill-5" fill="#FBE078"></path>
                <path d="M436,208.5 C436,209.8825 434.8825,211 433.5,211 C432.1175,211 431,209.8825 431,208.5 C431,207.1175 432.1175,206 433.5,206 C434.8825,206 436,207.1175 436,208.5" id="Fill-6" fill="#DF8B47"></path>
                <path d="M431,229.5 C431,230.8825 429.8825,232 428.5,232 C427.1175,232 426,230.8825 426,229.5 C426,228.1175 427.1175,227 428.5,227 C429.8825,227 431,228.1175 431,229.5" id="Fill-7" fill="#DF8B47"></path>
                <path d="M248,63.5 C248,64.88 246.8825,66 245.5,66 C244.1175,66 243,64.88 243,63.5 C243,62.12 244.1175,61 245.5,61 C246.8825,61 248,62.12 248,63.5" id="Fill-8" fill="#F8C65F"></path>
                <path d="M39,79.5 C39,80.88 37.88,82 36.5,82 C35.12,82 34,80.88 34,79.5 C34,78.12 35.12,77 36.5,77 C37.88,77 39,78.12 39,79.5" id="Fill-9" fill="#F8C65F"></path>
                <path d="M21,147.5 C21,148.8825 19.88,150 18.5,150 C17.12,150 16,148.8825 16,147.5 C16,146.1175 17.12,145 18.5,145 C19.88,145 21,146.1175 21,147.5" id="Fill-10" fill="#F8C65F"></path>
                <path d="M91,229.5 C91,230.8825 89.88,232 88.5,232 C87.12,232 86,230.8825 86,229.5 C86,228.1175 87.12,227 88.5,227 C89.88,227 91,228.1175 91,229.5" id="Fill-11" fill="#F8C65F"></path>
                <path d="M261,25.5 C261,26.88 259.8825,28 258.5,28 C257.1175,28 256,26.88 256,25.5 C256,24.12 257.1175,23 258.5,23 C259.8825,23 261,24.12 261,25.5" id="Fill-12" fill="#F8C65F"></path>
                <path d="M372,45.5 C372,46.88 370.8825,48 369.5,48 C368.1175,48 367,46.88 367,45.5 C367,44.12 368.1175,43 369.5,43 C370.8825,43 372,44.12 372,45.5" id="Fill-13" fill="#F8C65F"></path>
                <path d="M431,106.5 C431,107.88 429.8825,109 428.5,109 C427.1175,109 426,107.88 426,106.5 C426,105.12 427.1175,104 428.5,104 C429.8825,104 431,105.12 431,106.5" id="Fill-14" fill="#E16553"></path>
                <path d="M409,220.5 C409,221.8825 407.8825,223 406.5,223 C405.1175,223 404,221.8825 404,220.5 C404,219.1175 405.1175,218 406.5,218 C407.8825,218 409,219.1175 409,220.5" id="Fill-15" fill="#E16553"></path>
                <path d="M114,72.5 C114,73.88 112.88,75 111.5,75 C110.12,75 109,73.88 109,72.5 C109,71.12 110.12,70 111.5,70 C112.88,70 114,71.12 114,72.5" id="Fill-16" fill="#E16553"></path>
                <path d="M291,22.5 C291,23.88 289.8825,25 288.5,25 C287.1175,25 286,23.88 286,22.5 C286,21.12 287.1175,20 288.5,20 C289.8825,20 291,21.12 291,22.5" id="Fill-17" fill="#E16553"></path>
                <path d="M257,81.5 C257,82.88 255.8825,84 254.5,84 C253.1175,84 252,82.88 252,81.5 C252,80.12 253.1175,79 254.5,79 C255.8825,79 257,80.12 257,81.5" id="Fill-18" fill="#E16553"></path>
                <path d="M39,120.5 C39,121.88 37.88,123 36.5,123 C35.12,123 34,121.88 34,120.5 C34,119.12 35.12,118 36.5,118 C37.88,118 39,119.12 39,120.5" id="Fill-19" fill="#E16553"></path>
                <path d="M114,218.5 C114,219.8825 112.88,221 111.5,221 C110.12,221 109,219.8825 109,218.5 C109,217.1175 110.12,216 111.5,216 C112.88,216 114,217.1175 114,218.5" id="Fill-20" fill="#E16553"></path>
                <path d="M270,40.6666667 C268.712,40.6666667 267.666667,41.7143333 267.666667,43 C267.666667,44.2856667 268.712,45.3333333 270,45.3333333 C271.288,45.3333333 272.333333,44.2856667 272.333333,43 C272.333333,41.7143333 271.288,40.6666667 270,40.6666667 Z M270,50 C266.140667,50 263,46.8593333 263,43 C263,39.1406667 266.140667,36 270,36 C273.859333,36 277,39.1406667 277,43 C277,46.8593333 273.859333,50 270,50 L270,50 Z" id="Fill-21" fill="#EEB04B"></path>
                <path d="M152,15.6666667 C150.714333,15.6666667 149.666667,16.7143333 149.666667,18 C149.666667,19.2856667 150.714333,20.3333333 152,20.3333333 C153.285667,20.3333333 154.333333,19.2856667 154.333333,18 C154.333333,16.7143333 153.285667,15.6666667 152,15.6666667 Z M152,25 C148.140667,25 145,21.8593333 145,18 C145,14.1406667 148.140667,11 152,11 C155.859333,11 159,14.1406667 159,18 C159,21.8593333 155.859333,25 152,25 L152,25 Z" id="Fill-22" fill="#EEB04B"></path>
                <path d="M80,70.6666667 C78.7143333,70.6666667 77.6666667,71.7143333 77.6666667,73 C77.6666667,74.2856667 78.7143333,75.3333333 80,75.3333333 C81.2856667,75.3333333 82.3333333,74.2856667 82.3333333,73 C82.3333333,71.7143333 81.2856667,70.6666667 80,70.6666667 Z M80,80 C76.1406667,80 73,76.8593333 73,73 C73,69.1406667 76.1406667,66 80,66 C83.8593333,66 87,69.1406667 87,73 C87,76.8593333 83.8593333,80 80,80 L80,80 Z" id="Fill-23" fill="#EB8F4E"></path>
                <path d="M415,56.6666667 C413.712,56.6666667 412.666667,57.7143333 412.666667,59 C412.666667,60.2856667 413.712,61.3333333 415,61.3333333 C416.288,61.3333333 417.333333,60.2856667 417.333333,59 C417.333333,57.7143333 416.288,56.6666667 415,56.6666667 Z M415,66 C411.140667,66 408,62.8593333 408,59 C408,55.1406667 411.140667,52 415,52 C418.859333,52 422,55.1406667 422,59 C422,62.8593333 418.859333,66 415,66 L415,66 Z" id="Fill-24" fill="#EB8F4E"></path>
                <path d="M343,220.666667 C341.712,220.666667 340.666667,221.712 340.666667,223 C340.666667,224.288 341.712,225.333333 343,225.333333 C344.288,225.333333 345.333333,224.288 345.333333,223 C345.333333,221.712 344.288,220.666667 343,220.666667 Z M343,230 C339.140667,230 336,226.859333 336,223 C336,219.140667 339.140667,216 343,216 C346.859333,216 350,219.140667 350,223 C350,226.859333 346.859333,230 343,230 L343,230 Z" id="Fill-25" fill="#EB8F4E"></path>
                <path d="M238,15.6666667 C236.712,15.6666667 235.666667,16.7143333 235.666667,18 C235.666667,19.2856667 236.712,20.3333333 238,20.3333333 C239.288,20.3333333 240.333333,19.2856667 240.333333,18 C240.333333,16.7143333 239.288,15.6666667 238,15.6666667 Z M238,25 C234.140667,25 231,21.8593333 231,18 C231,14.1406667 234.140667,11 238,11 C241.859333,11 245,14.1406667 245,18 C245,21.8593333 241.859333,25 238,25 L238,25 Z" id="Fill-26" fill="#E16553"></path>
                <path d="M373.610489,75.500275 L375.354915,73.7557622 C376.215028,72.8956052 376.215028,71.5052747 375.354915,70.6451177 C374.494801,69.7849608 373.10454,69.7849608 372.244426,70.6451177 L370.5,72.3896305 L368.755574,70.6451177 C367.89546,69.7849608 366.505199,69.7849608 365.645085,70.6451177 C364.784972,71.5052747 364.784972,72.8956052 365.645085,73.7557622 L367.389511,75.500275 L365.645085,77.2447878 C364.784972,78.1049448 364.784972,79.4952752 365.645085,80.3554322 C366.074043,80.7844108 366.637186,81 367.20033,81 C367.763474,81 368.326617,80.7844108 368.755574,80.3554322 L370.5,78.6109195 L372.244426,80.3554322 C372.673383,80.7844108 373.236526,81 373.79967,81 C374.362814,81 374.925957,80.7844108 375.354915,80.3554322 C376.215028,79.4952752 376.215028,78.1049448 375.354915,77.2447878 L373.610489,75.500275" id="Fill-27" fill="#EEB04B"></path>
                <g id="Group-31" transform="translate(185.000000, 0.000000)">
                    <mask id="mask-2" fill="white">
                        <use xlink:href="#path-1"></use>
                    </mask>
                    <g id="Clip-29"></g>
                    <path d="M152.283826,35.3055556 L154.076696,33.4992778 C154.960696,32.6086667 154.960696,31.1691111 154.076696,30.2785 C153.192696,29.3878889 151.763826,29.3878889 150.879826,30.2785 L149.086957,32.0847778 L147.294087,30.2785 C146.410087,29.3878889 144.981217,29.3878889 144.097217,30.2785 C143.213217,31.1691111 143.213217,32.6086667 144.097217,33.4992778 L145.890087,35.3055556 L144.097217,37.1118333 C143.213217,38.0024444 143.213217,39.442 144.097217,40.3326111 C144.538087,40.7767778 145.11687,41 145.695652,41 C146.274435,41 146.853217,40.7767778 147.294087,40.3326111 L149.086957,38.5263333 L150.879826,40.3326111 C151.320696,40.7767778 151.899478,41 152.478261,41 C153.057043,41 153.635826,40.7767778 154.076696,40.3326111 C154.960696,39.442 154.960696,38.0024444 154.076696,37.1118333 L152.283826,35.3055556" id="Fill-28" fill="#E16553" mask="url(#mask-2)"></path>
                    <path d="M9.84904348,5.69444444 L11.641913,3.88816667 C12.525913,2.99755556 12.525913,1.558 11.641913,0.667388889 C10.757913,-0.223222222 9.32904348,-0.223222222 8.44504348,0.667388889 L6.65217391,2.47366667 L4.85930435,0.667388889 C3.97530435,-0.223222222 2.54643478,-0.223222222 1.66243478,0.667388889 C0.778434783,1.558 0.778434783,2.99755556 1.66243478,3.88816667 L3.45530435,5.69444444 L1.66243478,7.50072222 C0.778434783,8.39133333 0.778434783,9.83088889 1.66243478,10.7215 C2.10330435,11.1656667 2.68208696,11.3888889 3.26086957,11.3888889 C3.83965217,11.3888889 4.41843478,11.1656667 4.85930435,10.7215 L6.65217391,8.91522222 L8.44504348,10.7215 C8.88591304,11.1656667 9.46469565,11.3888889 10.0434783,11.3888889 C10.6222609,11.3888889 11.2010435,11.1656667 11.641913,10.7215 C12.525913,9.83088889 12.525913,8.39133333 11.641913,7.50072222 L9.84904348,5.69444444" id="Fill-30" fill="#EEB04B" mask="url(#mask-2)"></path>
                </g>
                <path d="M67.610489,221.500275 L69.3549145,219.755762 C70.2150285,218.895605 70.2150285,217.505275 69.3549145,216.645118 C68.4948005,215.784961 67.1045395,215.784961 66.2444256,216.645118 L64.5,218.389631 L62.7555744,216.645118 C61.8954605,215.784961 60.5051995,215.784961 59.6450855,216.645118 C58.7849715,217.505275 58.7849715,218.895605 59.6450855,219.755762 L61.389511,221.500275 L59.6450855,223.244788 C58.7849715,224.104945 58.7849715,225.495275 59.6450855,226.355432 C60.0740426,226.784411 60.6371863,227 61.20033,227 C61.7634737,227 62.3266173,226.784411 62.7555744,226.355432 L64.5,224.610919 L66.2444256,226.355432 C66.6733827,226.784411 67.2365263,227 67.79967,227 C68.3628137,227 68.9259574,226.784411 69.3549145,226.355432 C70.2150285,225.495275 70.2150285,224.104945 69.3549145,223.244788 L67.610489,221.500275" id="Fill-32" fill="#EEB04B"></path>
                <g id="Group-42" transform="translate(0.000000, 31.000000)">
                    <mask id="mask-4" fill="white">
                        <use xlink:href="#path-3"></use>
                    </mask>
                    <g id="Clip-34"></g>
                    <path d="M101.850434,6.66489362 L103.648702,4.86798936 C104.535364,3.982 104.535364,2.54991489 103.648702,1.66392553 C102.76204,0.77793617 101.328869,0.77793617 100.442207,1.66392553 L98.6439394,3.46082979 L96.8456717,1.66392553 C95.9590101,0.77793617 94.5258384,0.77793617 93.6391768,1.66392553 C92.7525152,2.54991489 92.7525152,3.982 93.6391768,4.86798936 L95.4374444,6.66489362 L93.6391768,8.46179787 C92.7525152,9.34778723 92.7525152,10.7798723 93.6391768,11.6658617 C94.0813737,12.1077234 94.661899,12.3297872 95.2424242,12.3297872 C95.8229495,12.3297872 96.4034747,12.1077234 96.8456717,11.6658617 L98.6439394,9.86895745 L100.442207,11.6658617 C100.884404,12.1077234 101.464929,12.3297872 102.045455,12.3297872 C102.62598,12.3297872 103.206505,12.1077234 103.648702,11.6658617 C104.535364,10.7798723 104.535364,9.34778723 103.648702,8.46179787 L101.850434,6.66489362" id="Fill-33" fill="#EB8F4E" mask="url(#mask-4)"></path>
                    <path d="M417.252525,214 L31.7474747,214 C30.4957172,214 29.479798,212.987117 29.479798,211.734043 C29.479798,210.480968 30.4957172,209.468085 31.7474747,209.468085 L417.252525,209.468085 C418.506551,209.468085 419.520202,210.480968 419.520202,211.734043 C419.520202,212.987117 418.506551,214 417.252525,214" id="Fill-35" fill="#193047" mask="url(#mask-4)"></path>
                    <path d="M449,211.734043 C449,212.987117 447.986348,214 446.732323,214 C445.478298,214 444.464646,212.987117 444.464646,211.734043 C444.464646,210.480968 445.478298,209.468085 446.732323,209.468085 C447.986348,209.468085 449,210.480968 449,211.734043" id="Fill-36" fill="#193047" mask="url(#mask-4)"></path>
                    <path d="M437.661616,214 L426.323232,214 C425.069207,214 424.055556,212.987117 424.055556,211.734043 C424.055556,210.480968 425.069207,209.468085 426.323232,209.468085 L437.661616,209.468085 C438.915641,209.468085 439.929293,210.480968 439.929293,211.734043 C439.929293,212.987117 438.915641,214 437.661616,214" id="Fill-37" fill="#193047" mask="url(#mask-4)"></path>
                    <path d="M0,211.734043 C0,210.480968 1.01591919,209.468085 2.26767677,209.468085 C3.51943434,209.468085 4.53535354,210.480968 4.53535354,211.734043 C4.53535354,212.987117 3.51943434,214 2.26767677,214 C1.01591919,214 0,212.987117 0,211.734043" id="Fill-38" fill="#193047" mask="url(#mask-4)"></path>
                    <path d="M22.6767677,214 L11.3383838,214 C10.0866263,214 9.07070707,212.987117 9.07070707,211.734043 C9.07070707,210.480968 10.0866263,209.468085 11.3383838,209.468085 L22.6767677,209.468085 C23.9285253,209.468085 24.9444444,210.480968 24.9444444,211.734043 C24.9444444,212.987117 23.9285253,214 22.6767677,214" id="Fill-39" fill="#193047" mask="url(#mask-4)"></path>
                    <path d="M290.262626,211.734043 L158.737374,211.734043 C154.979833,211.734043 151.934343,208.690862 151.934343,204.93617 L151.934343,109.765957 C151.934343,106.011266 154.979833,102.968085 158.737374,102.968085 L290.262626,102.968085 C294.020167,102.968085 297.065657,106.011266 297.065657,109.765957 L297.065657,204.93617 C297.065657,208.690862 294.020167,211.734043 290.262626,211.734043" id="Fill-40" fill="#D1E0E5" mask="url(#mask-4)"></path>
                    <path d="M158.737374,105.234043 C156.236126,105.234043 154.20202,107.268872 154.20202,109.765957 L154.20202,204.93617 C154.20202,207.435521 156.236126,209.468085 158.737374,209.468085 L290.262626,209.468085 C292.763874,209.468085 294.79798,207.435521 294.79798,204.93617 L294.79798,109.765957 C294.79798,107.268872 292.763874,105.234043 290.262626,105.234043 L158.737374,105.234043 Z M290.262626,214 L158.737374,214 C153.734879,214 149.666667,209.934872 149.666667,204.93617 L149.666667,109.765957 C149.666667,104.767255 153.734879,100.702128 158.737374,100.702128 L290.262626,100.702128 C295.265121,100.702128 299.333333,104.767255 299.333333,109.765957 L299.333333,204.93617 C299.333333,209.934872 295.265121,214 290.262626,214 L290.262626,214 Z" id="Fill-41" fill="#193047" mask="url(#mask-4)"></path>
                </g>
                <polygon id="Fill-43" fill="#3A4D53" points="166 215 284 215 284 147 166 147"></polygon>
                <path d="M165.535714,215.470588 L283.464286,215.470588 L283.464286,147.529412 L165.535714,147.529412 L165.535714,215.470588 Z M285.732143,220 L163.267857,220 C162.016,220 161,218.987676 161,217.735294 L161,145.264706 C161,144.012324 162.016,143 163.267857,143 L285.732143,143 C286.986268,143 288,144.012324 288,145.264706 L288,217.735294 C288,218.987676 286.986268,220 285.732143,220 L285.732143,220 Z" id="Fill-44" fill="#193047"></path>
                <path d="M236.351351,229 L236.351351,229 C236.351351,231.576 234.317189,233.666667 231.810811,233.666667 L218.189189,233.666667 C215.682811,233.666667 213.648649,231.576 213.648649,229 L141,229 L141,236 C141,239.866333 144.048973,243 147.810811,243 L302.189189,243 C305.951027,243 309,239.866333 309,236 L309,229 L236.351351,229" id="Fill-45" fill="#D1E0E5"></path>
                <path d="M222,224.5 C222,223.1175 223.12,222 224.5,222 C225.88,222 227,223.1175 227,224.5 C227,225.8825 225.88,227 224.5,227 C223.12,227 222,225.8825 222,224.5" id="Fill-46" fill="#193047"></path>
                <polygon id="Fill-47" fill="#FFFFFE" points="166 215 195 215 195 147 166 147"></polygon>
                <path d="M181.666667,159 L172.333333,159 C171.043,159 170,157.8825 170,156.5 C170,155.1175 171.043,154 172.333333,154 L181.666667,154 C182.957,154 184,155.1175 184,156.5 C184,157.8825 182.957,159 181.666667,159" id="Fill-48" fill="#556B73"></path>
                <path d="M213.666667,159 L204.333333,159 C203.043,159 202,157.8825 202,156.5 C202,155.1175 203.043,154 204.333333,154 L213.666667,154 C214.957,154 216,155.1175 216,156.5 C216,157.8825 214.957,159 213.666667,159" id="Fill-49" fill="#FFFFFE"></path>
                <path d="M213.666667,182 L204.333333,182 C203.043,182 202,180.8825 202,179.5 C202,178.1175 203.043,177 204.333333,177 L213.666667,177 C214.957,177 216,178.1175 216,179.5 C216,180.8825 214.957,182 213.666667,182" id="Fill-50" fill="#FFFFFE"></path>
                <path d="M237.8,166 L231.2,166 C229.9834,166 229,164.8825 229,163.5 C229,162.1175 229.9834,161 231.2,161 L237.8,161 C239.0166,161 240,162.1175 240,163.5 C240,164.8825 239.0166,166 237.8,166" id="Fill-51" fill="#FFFFFE"></path>
                <path d="M257.8,189 L251.2,189 C249.9834,189 249,187.8825 249,186.5 C249,185.1175 249.9834,184 251.2,184 L257.8,184 C259.0166,184 260,185.1175 260,186.5 C260,187.8825 259.0166,189 257.8,189" id="Fill-52" fill="#FFFFFE"></path>
                <path d="M214.8,209 L208.2,209 C206.9834,209 206,207.8825 206,206.5 C206,205.1175 206.9834,204 208.2,204 L214.8,204 C216.0166,204 217,205.1175 217,206.5 C217,207.8825 216.0166,209 214.8,209" id="Fill-53" fill="#FFFFFE"></path>
                <path d="M242.8,173 L236.2,173 C234.9834,173 234,171.8825 234,170.5 C234,169.1175 234.9834,168 236.2,168 L242.8,168 C244.0166,168 245,169.1175 245,170.5 C245,171.8825 244.0166,173 242.8,173" id="Fill-54" fill="#DE494B"></path>
                <path d="M242.8,196 L236.2,196 C234.9834,196 234,194.8825 234,193.5 C234,192.1175 234.9834,191 236.2,191 L242.8,191 C244.0166,191 245,192.1175 245,193.5 C245,194.8825 244.0166,196 242.8,196" id="Fill-55" fill="#DE494B"></path>
                <path d="M254.666667,166 L245.333333,166 C244.043,166 243,164.8825 243,163.5 C243,162.1175 244.043,161 245.333333,161 L254.666667,161 C255.957,161 257,162.1175 257,163.5 C257,164.8825 255.957,166 254.666667,166" id="Fill-56" fill="#FFFFFE"></path>
                <path d="M181.666667,182 L172.333333,182 C171.043,182 170,180.8825 170,179.5 C170,178.1175 171.043,177 172.333333,177 L181.666667,177 C182.957,177 184,178.1175 184,179.5 C184,180.8825 182.957,182 181.666667,182" id="Fill-57" fill="#556B73"></path>
                <path d="M186.666667,166 L177.333333,166 C176.043,166 175,164.8825 175,163.5 C175,162.1175 176.043,161 177.333333,161 L186.666667,161 C187.957,161 189,162.1175 189,163.5 C189,164.8825 187.957,166 186.666667,166" id="Fill-58" fill="#556B73"></path>
                <path d="M223.777778,166 L208.222222,166 C206.993333,166 206,164.8825 206,163.5 C206,162.1175 206.993333,161 208.222222,161 L223.777778,161 C225.006667,161 226,162.1175 226,163.5 C226,164.8825 225.006667,166 223.777778,166" id="Fill-59" fill="#F8C65F"></path>
                <path d="M237.777778,209 L222.222222,209 C220.993333,209 220,207.8825 220,206.5 C220,205.1175 220.993333,204 222.222222,204 L237.777778,204 C239.006667,204 240,205.1175 240,206.5 C240,207.8825 239.006667,209 237.777778,209" id="Fill-60" fill="#F8C65F"></path>
                <path d="M223.777778,202 L208.222222,202 C206.993333,202 206,200.8825 206,199.5 C206,198.1175 206.993333,197 208.222222,197 L223.777778,197 C225.006667,197 226,198.1175 226,199.5 C226,200.8825 225.006667,202 223.777778,202" id="Fill-61" fill="#DE494B"></path>
                <path d="M217.666667,189 L208.333333,189 C207.043,189 206,187.8825 206,186.5 C206,185.1175 207.043,184 208.333333,184 L217.666667,184 C218.957,184 220,185.1175 220,186.5 C220,187.8825 218.957,189 217.666667,189" id="Fill-62" fill="#F8C65F"></path>
                <path d="M228.727273,173 L208.272727,173 C207.015909,173 206,171.8825 206,170.5 C206,169.1175 207.015909,168 208.272727,168 L228.727273,168 C229.984091,168 231,169.1175 231,170.5 C231,171.8825 229.984091,173 228.727273,173" id="Fill-63" fill="#FFFFFE"></path>
                <path d="M244.727273,189 L224.272727,189 C223.015909,189 222,187.8825 222,186.5 C222,185.1175 223.015909,184 224.272727,184 L244.727273,184 C245.984091,184 247,185.1175 247,186.5 C247,187.8825 245.984091,189 244.727273,189" id="Fill-64" fill="#FFFFFE"></path>
                <path d="M228.727273,196 L208.272727,196 C207.015909,196 206,194.8825 206,193.5 C206,192.1175 207.015909,191 208.272727,191 L228.727273,191 C229.984091,191 231,192.1175 231,193.5 C231,194.8825 229.984091,196 228.727273,196" id="Fill-65" fill="#FFFFFE"></path>
                <path d="M183.8,173 L177.2,173 C175.9834,173 175,171.8825 175,170.5 C175,169.1175 175.9834,168 177.2,168 L183.8,168 C185.0166,168 186,169.1175 186,170.5 C186,171.8825 185.0166,173 183.8,173" id="Fill-66" fill="#556B73"></path>
                <path d="M188.714286,189 L177.285714,189 C176.021714,189 175,187.8825 175,186.5 C175,185.1175 176.021714,184 177.285714,184 L188.714286,184 C189.978286,184 191,185.1175 191,186.5 C191,187.8825 189.978286,189 188.714286,189" id="Fill-67" fill="#556B73"></path>
                <path d="M181.75,196 L177.25,196 C176.00575,196 175,194.8825 175,193.5 C175,192.1175 176.00575,191 177.25,191 L181.75,191 C182.99425,191 184,192.1175 184,193.5 C184,194.8825 182.99425,196 181.75,196" id="Fill-68" fill="#556B73"></path>
                <path d="M186.666667,202 L177.333333,202 C176.043,202 175,200.8825 175,199.5 C175,198.1175 176.043,197 177.333333,197 L186.666667,197 C187.957,197 189,198.1175 189,199.5 C189,200.8825 187.957,202 186.666667,202" id="Fill-69" fill="#556B73"></path>
                <path d="M249.7,202 L231.3,202 C230.0281,202 229,200.8825 229,199.5 C229,198.1175 230.0281,197 231.3,197 L249.7,197 C250.9719,197 252,198.1175 252,199.5 C252,200.8825 250.9719,202 249.7,202" id="Fill-70" fill="#FFFFFE"></path>
                <path d="M183.8,209 L177.2,209 C175.9834,209 175,207.8825 175,206.5 C175,205.1175 175.9834,204 177.2,204 L183.8,204 C185.0166,204 186,205.1175 186,206.5 C186,207.8825 185.0166,209 183.8,209" id="Fill-71" fill="#556B73"></path>
                <path d="M147.527778,241 L301.472222,241 C303.969292,241 306,238.76 306,236 L143,236 C143,238.76 145.032972,241 147.527778,241" id="Fill-72" fill="#ABBCCA"></path>
                <path d="M293,137 L293,227 L295,227 L295,140.901616 C295,139.231761 294.19,137.786214 293,137" id="Fill-73" fill="#ABBCCA"></path>
                <polygon id="Fill-74" fill="#CAD6DB" points="166 149 195 149 195 147 166 147"></polygon>
                <g id="Group-78" transform="translate(138.000000, 147.000000)">
                    <mask id="mask-6" fill="white">
                        <use xlink:href="#path-5"></use>
                    </mask>
                    <g id="Clip-76"></g>
                    <polygon id="Fill-75" fill="#354448" mask="url(#mask-6)" points="56.5789474 2.27906977 144.842105 2.27906977 144.842105 0 56.5789474 0"></polygon>
                    <path d="M167.473684,88.8837209 C167.473684,91.3975349 165.443632,93.4418605 162.947368,93.4418605 L9.05263158,93.4418605 C6.55636842,93.4418605 4.52631579,91.3975349 4.52631579,88.8837209 L4.52631579,84.3255814 L72.8080526,84.3255814 C73.7427368,86.9784186 76.2593684,88.8837209 79.2105263,88.8837209 L92.7894737,88.8837209 C95.7406316,88.8837209 98.2572632,86.9784186 99.1919474,84.3255814 L167.473684,84.3255814 L167.473684,88.8837209 Z M169.736842,79.7674419 L2.26315789,79.7674419 C1.01389474,79.7674419 0,80.786186 0,82.0465116 L0,88.8837209 C0,93.9113488 4.06010526,98 9.05263158,98 L162.947368,98 C167.939895,98 172,93.9113488 172,88.8837209 L172,82.0465116 C172,80.786186 170.988368,79.7674419 169.736842,79.7674419 L169.736842,79.7674419 Z" id="Fill-77" fill="#193047" mask="url(#mask-6)"></path>
                </g>
                <path d="M349.4,92.6666667 C348.520533,92.6666667 347.663733,92.7577778 346.8296,92.9172222 C347.015467,92.1017778 347.133333,91.2612778 347.133333,90.3888889 C347.133333,84.0999444 342.060533,79 335.8,79 C330.690933,79 326.420533,82.4212222 325.006133,87.0883889 C323.476133,86.3116667 321.767067,85.8333333 319.933333,85.8333333 C313.6728,85.8333333 308.6,90.9332778 308.6,97.2222222 C308.6,97.3019444 308.622667,97.3748333 308.624933,97.4568333 C307.883733,97.3019444 307.1176,97.2222222 306.333333,97.2222222 C300.0728,97.2222222 295,102.322167 295,108.611111 C295,114.900056 300.0728,120 306.333333,120 L349.4,120 C356.909467,120 363,113.881889 363,106.333333 C363,98.7847778 356.909467,92.6666667 349.4,92.6666667" id="Fill-79" fill="#D1E0E5"></path>
                <path d="M306.6875,99.5 C301.655063,99.5 297.5625,103.5365 297.5625,108.5 C297.5625,113.4635 301.655063,117.5 306.6875,117.5 L350.03125,117.5 C356.320656,117.5 361.4375,112.45325 361.4375,106.25 C361.4375,99.3605 355.243906,93.82775 347.873188,95.20925 C347.118094,95.351 346.337906,95.108 345.801813,94.56125 C345.268,94.0145 345.049,93.236 345.222375,92.49575 C345.388906,91.778 345.46875,91.1255 345.46875,90.5 C345.46875,85.5365 341.376188,81.5 336.34375,81.5 C332.331031,81.5 328.845281,84.0695 327.663594,87.8945 C327.467406,88.53125 326.995188,89.04875 326.37925,89.30975 C325.75875,89.5685 325.058406,89.54825 324.453875,89.249 C323.121625,88.58525 321.750594,88.25 320.375,88.25 C315.383625,88.25 311.313875,92.22575 311.25,97.13525 C311.263688,97.22975 311.270531,97.32425 311.275094,97.41875 C311.293344,98.105 310.9945,98.762 310.458406,99.20525 C309.924594,99.64625 309.217406,99.8195 308.533031,99.6845 C307.930781,99.56075 307.308,99.5 306.6875,99.5 Z M350.03125,122 L306.6875,122 C299.138844,122 293,115.94525 293,108.5 C293,100.994 299.262031,94.88525 306.876844,95.00225 C307.967281,88.6235 313.60425,83.75 320.375,83.75 C321.673031,83.75 322.961938,83.94125 324.22575,84.3215 C326.532094,79.85975 331.144781,77 336.34375,77 C343.892406,77 350.03125,83.05475 350.03125,90.5 C358.834594,90.5 366,97.565 366,106.25 C366,114.935 358.834594,122 350.03125,122 L350.03125,122 Z" id="Fill-80" fill="#193047"></path>
                <path d="M355.462469,98 C356.878052,99.8602581 357.745886,102.145527 357.745886,104.648865 C357.745886,110.792612 352.70118,115.774811 346.475317,115.774811 L300,115.774811 C301.586896,117.143302 303.633631,118 305.90127,118 L346.475317,118 C346.858517,118 348.343978,118 348.729431,118 C354.955293,118 360,113.017802 360,106.874054 C360,103.233645 358.203471,100.031598 355.462469,98" id="Fill-81" fill="#ABBCCA"></path>
                <path d="M362.769318,109 C361.535752,109 360.538637,107.992 360.538637,106.75 C360.538637,100.54675 355.535218,95.5 349.385229,95.5 C345.639915,95.5 342.166744,97.381 340.089979,100.531 C339.40516,101.566 338.022137,101.84275 336.996024,101.161 C335.96991,100.4725 335.691075,99.07525 336.373664,98.04025 C339.278011,93.6325 344.140897,91 349.385229,91 C357.993429,91 365,98.065 365,106.75 C365,107.992 364.002885,109 362.769318,109" id="Fill-82" fill="#193047"></path>
                <path d="M329.722862,95 C328.84338,95 328.007189,94.504901 327.633524,93.6797359 C326.179873,90.4714943 322.901184,88.4008802 319.278449,88.4008802 C318.018467,88.4008802 317,87.415083 317,86.2004401 C317,84.9857972 318.018467,84 319.278449,84 C324.712552,84 329.629445,87.1070214 331.807643,91.914983 C332.313459,93.0284057 331.787137,94.3266653 330.634242,94.8129626 C330.338043,94.9383877 330.028174,95 329.722862,95" id="Fill-83" fill="#193047"></path>
                <path d="M316.723873,106 C315.844636,106 315.008678,105.505198 314.635117,104.680528 C313.181871,101.472011 309.904096,99.3982407 306.277815,99.3982407 C305.018183,99.3982407 304,98.4130348 304,97.1991204 C304,95.9852059 305.018183,95 306.277815,95 C311.714958,95 316.63276,98.1095562 318.808073,102.919032 C319.313748,104.031787 318.785295,105.329268 317.632721,105.815274 C317.334327,105.940624 317.026822,106 316.723873,106" id="Fill-84" fill="#193047"></path>
                <path d="M335.8,122 C330.9468,122 327,118.0532 327,113.2 C327,111.9856 327.9834,111 329.2,111 C330.4166,111 331.4,111.9856 331.4,113.2 C331.4,115.6266 333.3734,117.6 335.8,117.6 C337.0166,117.6 338,118.5856 338,119.8 C338,121.0144 337.0166,122 335.8,122" id="Fill-85" fill="#193047"></path>
                <path d="M324.25,166 L306.25,166 C305.00575,166 304,164.981833 304,163.722222 C304,162.462611 305.00575,161.444444 306.25,161.444444 L324.25,161.444444 C325.492,161.444444 326.5,160.424 326.5,159.166667 L326.5,127.277778 C326.5,126.018167 327.50575,125 328.75,125 C329.99425,125 331,126.018167 331,127.277778 L331,159.166667 C331,162.934111 327.9715,166 324.25,166" id="Fill-86" fill="#C6D1D9"></path>
                <path d="M319.75,157 L306.25,157 C305.00575,157 304,155.978286 304,154.714286 C304,153.450286 305.00575,152.428571 306.25,152.428571 L317.5,152.428571 L317.5,129.571429 L315.25,129.571429 C314.00575,129.571429 313,128.549714 313,127.285714 C313,126.021714 314.00575,125 315.25,125 L319.75,125 C320.99425,125 322,126.021714 322,127.285714 L322,154.714286 C322,155.978286 320.99425,157 319.75,157" id="Fill-87" fill="#C6D1D9"></path>
                <path d="M326.777778,175 L306.277778,175 C305.018167,175 304,173.984091 304,172.727273 C304,171.470455 305.018167,170.454545 306.277778,170.454545 L326.777778,170.454545 C331.802556,170.454545 335.888889,166.377273 335.888889,161.363636 L335.888889,127.272727 C335.888889,126.015909 336.907056,125 338.166667,125 L342.722222,125 C343.981833,125 345,126.015909 345,127.272727 C345,128.529545 343.981833,129.545455 342.722222,129.545455 L340.444444,129.545455 L340.444444,161.363636 C340.444444,168.884091 334.314944,175 326.777778,175" id="Fill-88" fill="#C6D1D9"></path>
                <path d="M122.4375,159 L58.5625,159 C56.044,159 54,156.966769 54,154.461538 L54,104.538462 C54,102.033231 56.044,100 58.5625,100 L122.4375,100 C124.958281,100 127,102.033231 127,104.538462 L127,154.461538 C127,156.966769 124.958281,159 122.4375,159" id="Fill-89" fill="#FFFFFE"></path>
                <path d="M58.7941176,102.571429 C57.5462647,102.571429 56.5294118,103.597714 56.5294118,104.857143 L56.5294118,155.142857 C56.5294118,156.404571 57.5462647,157.428571 58.7941176,157.428571 L122.205882,157.428571 C123.453735,157.428571 124.470588,156.404571 124.470588,155.142857 L124.470588,104.857143 C124.470588,103.597714 123.453735,102.571429 122.205882,102.571429 L58.7941176,102.571429 Z M122.205882,162 L58.7941176,162 C55.0482941,162 52,158.923429 52,155.142857 L52,104.857143 C52,101.076571 55.0482941,98 58.7941176,98 L122.205882,98 C125.951706,98 129,101.076571 129,104.857143 L129,155.142857 C129,158.923429 125.951706,162 122.205882,162 L122.205882,162 Z" id="Fill-90" fill="#A0A9B6"></path>
                <path d="M127,114 L54,114 L54,104.666667 C54,102.090667 56.044,100 58.5625,100 L122.4375,100 C124.958281,100 127,102.090667 127,104.666667 L127,114" id="Fill-91" fill="#D1E0E5"></path>
                <path d="M56.5294118,111.5 L124.470588,111.5 L124.470588,104.75 C124.470588,103.51025 123.453735,102.5 122.205882,102.5 L58.7941176,102.5 C57.5462647,102.5 56.5294118,103.51025 56.5294118,104.75 L56.5294118,111.5 Z M126.735294,116 L54.2647059,116 C53.0145882,116 52,114.992 52,113.75 L52,104.75 C52,101.0285 55.0482941,98 58.7941176,98 L122.205882,98 C125.951706,98 129,101.0285 129,104.75 L129,113.75 C129,114.992 127.985412,116 126.735294,116 L126.735294,116 Z" id="Fill-92" fill="#A0A9B6"></path>
                <path d="M136.4375,170 L72.5625,170 C70.044,170 68,167.969038 68,165.461538 L68,115.538462 C68,113.033231 70.044,111 72.5625,111 L136.4375,111 C138.958281,111 141,113.033231 141,115.538462 L141,165.461538 C141,167.969038 138.958281,170 136.4375,170" id="Fill-93" fill="#FFFFFE"></path>
                <path d="M72.7941176,113.571429 C71.5462647,113.571429 70.5294118,114.597714 70.5294118,115.857143 L70.5294118,166.142857 C70.5294118,167.404571 71.5462647,168.428571 72.7941176,168.428571 L136.205882,168.428571 C137.453735,168.428571 138.470588,167.404571 138.470588,166.142857 L138.470588,115.857143 C138.470588,114.597714 137.453735,113.571429 136.205882,113.571429 L72.7941176,113.571429 Z M136.205882,173 L72.7941176,173 C69.0482941,173 66,169.923429 66,166.142857 L66,115.857143 C66,112.076571 69.0482941,109 72.7941176,109 L136.205882,109 C139.951706,109 143,112.076571 143,115.857143 L143,166.142857 C143,169.923429 139.951706,173 136.205882,173 L136.205882,173 Z" id="Fill-94" fill="#193047"></path>
                <path d="M141,125 L68,125 L68,115.666667 C68,113.090667 70.044,111 72.5625,111 L136.4375,111 C138.958281,111 141,113.090667 141,115.666667 L141,125" id="Fill-95" fill="#D1E0E5"></path>
                <path d="M70.5294118,122.5 L138.470588,122.5 L138.470588,115.75 C138.470588,114.51025 137.453735,113.5 136.205882,113.5 L72.7941176,113.5 C71.5462647,113.5 70.5294118,114.51025 70.5294118,115.75 L70.5294118,122.5 Z M140.735294,127 L68.2647059,127 C67.0145882,127 66,125.99425 66,124.75 L66,115.75 C66,112.0285 69.0482941,109 72.7941176,109 L136.205882,109 C139.951706,109 143,112.0285 143,115.75 L143,124.75 C143,125.99425 141.985412,127 140.735294,127 L140.735294,127 Z" id="Fill-96" fill="#193047"></path>
                <path d="M92.79967,156 C92.2365263,156 91.6733827,155.779507 91.2444256,155.340771 L84.6450855,148.590982 C83.7849715,147.711259 83.7849715,146.289303 84.6450855,145.409581 L91.2444256,138.659792 C92.1045395,137.780069 93.4948005,137.780069 94.3549145,138.659792 C95.2150285,139.539514 95.2150285,140.96147 94.3549145,141.841192 L89.3108189,147.000281 L94.3549145,152.15937 C95.2150285,153.039093 95.2150285,154.461048 94.3549145,155.340771 C93.9259574,155.779507 93.3628137,156 92.79967,156" id="Fill-97" fill="#193047"></path>
                <path d="M115.20033,156 C114.637186,156 114.074043,155.779507 113.645085,155.340771 C112.784972,154.461048 112.784972,153.039093 113.645085,152.15937 L118.689181,147.000281 L113.645085,141.841192 C112.784972,140.96147 112.784972,139.539514 113.645085,138.659792 C114.505199,137.780069 115.89546,137.780069 116.755574,138.659792 L123.354915,145.409581 C124.215028,146.289303 124.215028,147.711259 123.354915,148.590982 L116.755574,155.340771 C116.326617,155.779507 115.763474,156 115.20033,156" id="Fill-98" fill="#193047"></path>
                <path d="M78,118.5 C78,119.88 76.88,121 75.5,121 C74.12,121 73,119.88 73,118.5 C73,117.12 74.12,116 75.5,116 C76.88,116 78,117.12 78,118.5" id="Fill-99" fill="#193047"></path>
                <path d="M84,118.5 C84,119.88 82.88,121 81.5,121 C80.12,121 79,119.88 79,118.5 C79,117.12 80.12,116 81.5,116 C82.88,116 84,117.12 84,118.5" id="Fill-100" fill="#193047"></path>
                <path d="M91,118.5 C91,119.88 89.88,121 88.5,121 C87.12,121 86,119.88 86,118.5 C86,117.12 87.12,116 88.5,116 C89.88,116 91,117.12 91,118.5" id="Fill-101" fill="#193047"></path>
                <path d="M64,106.5 C64,107.88 62.88,109 61.5,109 C60.12,109 59,107.88 59,106.5 C59,105.12 60.12,104 61.5,104 C62.88,104 64,105.12 64,106.5" id="Fill-102" fill="#A0A9B6"></path>
                <path d="M71,106.5 C71,107.88 69.88,109 68.5,109 C67.12,109 66,107.88 66,106.5 C66,105.12 67.12,104 68.5,104 C69.88,104 71,105.12 71,106.5" id="Fill-103" fill="#A0A9B6"></path>
                <path d="M78,106.5 C78,107.88 76.88,109 75.5,109 C74.12,109 73,107.88 73,106.5 C73,105.12 74.12,104 75.5,104 C76.88,104 78,105.12 78,106.5" id="Fill-104" fill="#A0A9B6"></path>
                <path d="M100.331302,159 C99.9813553,159 99.6244102,158.921797 99.2907949,158.758492 C98.1383055,158.190373 97.6693776,156.808026 98.2479553,155.671788 L107.579853,137.271171 C108.156098,136.137233 109.555883,135.674917 110.708372,136.243036 C111.860861,136.811155 112.329789,138.191202 111.753545,139.32744 L102.421647,157.728057 C102.011043,158.535384 101.187503,159 100.331302,159" id="Fill-105" fill="#193047"></path>
                <path d="M138.5,77 C136.016,77 134,79.0408889 134,81.5555556 L134,118 L140.59925,112.988889 C142.1585,111.806722 144.053,111.166667 146.0015,111.166667 L183.5,111.166667 C185.98625,111.166667 188,109.128056 188,106.611111 L188,81.5555556 C188,79.0408889 185.98625,77 183.5,77 L138.5,77" id="Fill-106" fill="#EEB04B"></path>
                <path d="M138.807692,79.5 C137.557346,79.5 136.538462,80.51025 136.538462,81.75 L136.538462,113.25 L139.563346,111 C141.514885,109.54875 143.933885,108.75 146.373308,108.75 L184.192308,108.75 C185.442654,108.75 186.461538,107.73975 186.461538,106.5 L186.461538,81.75 C186.461538,80.51025 185.442654,79.5 184.192308,79.5 L138.807692,79.5 Z M134.269231,120 C133.924308,120 133.574846,119.92125 133.254885,119.76375 C132.485615,119.38125 132,118.60275 132,117.75 L132,81.75 C132,78.0285 135.054385,75 138.807692,75 L184.192308,75 C187.945615,75 191,78.0285 191,81.75 L191,106.5 C191,110.2215 187.945615,113.25 184.192308,113.25 L146.373308,113.25 C144.909654,113.25 143.457346,113.72925 142.286423,114.6 L135.630769,119.55 C135.231385,119.847 134.750308,120 134.269231,120 L134.269231,120 Z" id="Fill-107" fill="#193047"></path>
                <path d="M81.5,204 C83.98625,204 86,201.961389 86,199.444444 L86,163 L79.40075,168.011111 C77.84375,169.195556 75.947,169.833333 74.00075,169.833333 L27.5,169.833333 C25.016,169.833333 23,171.874222 23,174.388889 L23,199.444444 C23,201.961389 25.016,204 27.5,204 L81.5,204 L40.5195312,193.113281" id="Fill-111" fill="#E77E6F"></path>
                <path d="M26.8,172.250709 C25.5510667,172.250709 24.5333333,173.258688 24.5333333,174.500662 L24.5333333,199.250142 C24.5333333,200.492116 25.5510667,201.500095 26.8,201.500095 L81.2,201.500095 C82.4489333,201.500095 83.4666667,200.492116 83.4666667,199.250142 L83.4666667,167.750804 L80.4452,170.000756 C78.4981333,171.451976 76.0818667,172.250709 73.6452,172.250709 L26.8,172.250709 Z M81.2,206 L26.8,206 C23.0509333,206 20,202.971564 20,199.250142 L20,174.500662 C20,170.77924 23.0509333,167.750804 26.8,167.750804 L73.6452,167.750804 C75.1072,167.750804 76.5556,167.271564 77.7252,166.400832 L84.3733333,161.450936 C85.0578667,160.937947 85.9758667,160.856949 86.7465333,161.237191 C87.5149333,161.619683 88,162.398166 88,163.250898 L88,199.250142 C88,202.971564 84.9490667,206 81.2,206 L81.2,206 Z" id="Fill-112" fill="#193047"></path>
                <path d="M142.736842,193 L108.789474,193 C105.046211,193 102,189.923429 102,186.142857 L102,179.285714 C102,178.021714 103.013895,177 104.263158,177 C105.512421,177 106.526316,178.021714 106.526316,179.285714 L106.526316,186.142857 C106.526316,187.404571 107.542474,188.428571 108.789474,188.428571 L142.736842,188.428571 C143.986105,188.428571 145,189.450286 145,190.714286 C145,191.978286 143.986105,193 142.736842,193" id="Fill-117" fill="#193047"></path>
                <path d="M372.5,217 L372.5,217 C366.1474,217 361,211.9645 361,205.75 L361,192.25 C361,186.0355 366.1474,181 372.5,181 C378.8526,181 384,186.0355 384,192.25 L384,205.75 C384,211.9645 378.8526,217 372.5,217" id="Fill-118" fill="#ACD3E6"></path>
                <path d="M371.5,183.555556 C366.5365,183.555556 362.5,187.641889 362.5,192.666667 L362.5,206.333333 C362.5,211.358111 366.5365,215.444444 371.5,215.444444 C376.4635,215.444444 380.5,211.358111 380.5,206.333333 L380.5,192.666667 C380.5,187.641889 376.4635,183.555556 371.5,183.555556 Z M371.5,220 C364.05475,220 358,213.8705 358,206.333333 L358,192.666667 C358,185.1295 364.05475,179 371.5,179 C378.94525,179 385,185.1295 385,192.666667 L385,206.333333 C385,213.8705 378.94525,220 371.5,220 L371.5,220 Z" id="Fill-119" fill="#193047"></path>
                <path d="M378.664514,187 L378.664514,204.50848 C378.664514,209.57624 374.474653,213.701696 369.322572,213.701696 C367.34208,213.701696 365.511059,213.083452 364,212.044619 C365.688556,214.42796 368.486468,216 371.658057,216 C376.810139,216 381,211.874544 381,206.806784 L381,193.01696 C381,190.704866 380.098503,188.618006 378.664514,187" id="Fill-120" fill="#70AED3"></path>
                <path d="M370,193.5 C370,192.1175 371.1175,191 372.5,191 C373.8825,191 375,192.1175 375,193.5 C375,194.8825 373.8825,196 372.5,196 C371.1175,196 370,194.8825 370,193.5" id="Fill-121" fill="#193047"></path>
                <path d="M337.870968,209 L306.258065,209 C305.009355,209 304,207.984091 304,206.727273 C304,205.470455 305.009355,204.454545 306.258065,204.454545 L337.870968,204.454545 C341.605806,204.454545 344.645161,201.395455 344.645161,197.636364 L344.645161,173.772727 C344.645161,165.627273 351.229677,159 359.322581,159 C367.415484,159 374,165.627273 374,173.772727 L374,181.727273 C374,182.984091 372.990645,184 371.741935,184 C370.493226,184 369.483871,182.984091 369.483871,181.727273 L369.483871,173.772727 C369.483871,168.134091 364.924839,163.545455 359.322581,163.545455 C353.720323,163.545455 349.16129,168.134091 349.16129,173.772727 L349.16129,197.636364 C349.16129,203.902273 344.096452,209 337.870968,209" id="Fill-122" fill="#193047"></path>
                <path d="M280,132 C280,141.388857 272.388857,149 263,149 C253.611143,149 246,141.388857 246,132 C246,122.611143 253.611143,115 263,115 C272.388857,115 280,122.611143 280,132" id="Fill-123" fill="#E46C2C"></path>
                <path d="M263.5,115.555556 C254.710056,115.555556 247.555556,122.707778 247.555556,131.5 C247.555556,140.289944 254.710056,147.444444 263.5,147.444444 C272.289944,147.444444 279.444444,140.289944 279.444444,131.5 C279.444444,122.707778 272.289944,115.555556 263.5,115.555556 Z M263.5,152 C252.195389,152 243,142.804611 243,131.5 C243,120.197667 252.195389,111 263.5,111 C274.804611,111 284,120.197667 284,131.5 C284,142.804611 274.804611,152 263.5,152 L263.5,152 Z" id="Fill-124" fill="#193047"></path>
                <path d="M260.750141,139 C260.174177,139 259.598213,138.771343 259.15949,138.316362 L254.659771,133.64989 C253.780076,132.737594 253.780076,131.262989 254.659771,130.350694 C255.539466,129.438398 256.961377,129.438398 257.841072,130.350694 L260.750141,133.367568 L268.158928,125.684221 C269.038623,124.771926 270.460534,124.771926 271.340229,125.684221 C272.219924,126.596517 272.219924,128.071122 271.340229,128.983417 L262.340791,138.316362 C261.902069,138.771343 261.326105,139 260.750141,139" id="Fill-125" fill="#FFFFFE"></path>
                <path d="M393,109.5 C393,110.88 391.8825,112 390.5,112 C389.1175,112 388,110.88 388,109.5 C388,108.12 389.1175,107 390.5,107 C391.8825,107 393,108.12 393,109.5" id="Fill-126" fill="#193047"></path>
                <path d="M400,109.5 C400,110.88 398.8825,112 397.5,112 C396.1175,112 395,110.88 395,109.5 C395,108.12 396.1175,107 397.5,107 C398.8825,107 400,108.12 400,109.5" id="Fill-127" fill="#193047"></path>
                <path d="M379,109.5 C379,110.88 377.8825,112 376.5,112 C375.1175,112 374,110.88 374,109.5 C374,108.12 375.1175,107 376.5,107 C377.8825,107 379,108.12 379,109.5" id="Fill-128" fill="#193047"></path>
                <path d="M372,109.5 C372,110.88 370.8825,112 369.5,112 C368.1175,112 367,110.88 367,109.5 C367,108.12 368.1175,107 369.5,107 C370.8825,107 372,108.12 372,109.5" id="Fill-129" fill="#193047"></path>
                <path d="M386,109.5 C386,110.88 384.8825,112 383.5,112 C382.1175,112 381,110.88 381,109.5 C381,108.12 382.1175,107 383.5,107 C384.8825,107 386,108.12 386,109.5" id="Fill-130" fill="#193047"></path>
                <path d="M406,115.5 C406,116.88 404.8825,118 403.5,118 C402.1175,118 401,116.88 401,115.5 C401,114.12 402.1175,113 403.5,113 C404.8825,113 406,114.12 406,115.5" id="Fill-131" fill="#193047"></path>
                <path d="M406,109.5 C406,110.88 404.8825,112 403.5,112 C402.1175,112 401,110.88 401,109.5 C401,108.12 402.1175,107 403.5,107 C404.8825,107 406,108.12 406,109.5" id="Fill-132" fill="#193047"></path>
                <path d="M406,102.5 C406,103.88 404.8825,105 403.5,105 C402.1175,105 401,103.88 401,102.5 C401,101.12 402.1175,100 403.5,100 C404.8825,100 406,101.12 406,102.5" id="Fill-133" fill="#193047"></path>
                <path d="M406,95.5 C406,96.88 404.8825,98 403.5,98 C402.1175,98 401,96.88 401,95.5 C401,94.12 402.1175,93 403.5,93 C404.8825,93 406,94.12 406,95.5" id="Fill-134" fill="#193047"></path>
                <path d="M406,190.5 C406,191.8825 404.8825,193 403.5,193 C402.1175,193 401,191.8825 401,190.5 C401,189.1175 402.1175,188 403.5,188 C404.8825,188 406,189.1175 406,190.5" id="Fill-135" fill="#193047"></path>
                <path d="M406,197.5 C406,198.8825 404.8825,200 403.5,200 C402.1175,200 401,198.8825 401,197.5 C401,196.1175 402.1175,195 403.5,195 C404.8825,195 406,196.1175 406,197.5" id="Fill-136" fill="#193047"></path>
                <path d="M406,183.5 C406,184.8825 404.8825,186 403.5,186 C402.1175,186 401,184.8825 401,183.5 C401,182.1175 402.1175,181 403.5,181 C404.8825,181 406,182.1175 406,183.5" id="Fill-137" fill="#193047"></path>
                <polygon id="Fill-138" fill="#EEB04B" points="215 120 229 120 229 102 215 102"></polygon>
                <path d="M215.6,120.5 L229.4,120.5 L229.4,102.5 L215.6,102.5 L215.6,120.5 Z M231.7,125 L213.3,125 C212.0304,125 211,123.992 211,122.75 L211,100.25 C211,99.008 212.0304,98 213.3,98 L231.7,98 C232.9719,98 234,99.008 234,100.25 L234,122.75 C234,123.992 232.9719,125 231.7,125 L231.7,125 Z" id="Fill-139" fill="#193047"></path>
                <path d="M213,107 L213,107 C209.133667,107 206,103.866333 206,100 L206,93 L213,93 L213,107" id="Fill-140" fill="#D1E0E5"></path>
                <path d="M208.4,95.5 L208.4,100 C208.4,101.66275 209.2866,103.11625 210.6,103.89475 L210.6,95.5 L208.4,95.5 Z M212.8,109 C207.9468,109 204,104.9635 204,100 L204,93.25 C204,92.008 204.9856,91 206.2,91 L212.8,91 C214.0144,91 215,92.008 215,93.25 L215,106.75 C215,107.992 214.0144,109 212.8,109 L212.8,109 Z" id="Fill-141" fill="#193047"></path>
                <path d="M231,107 L231,107 C234.866333,107 238,103.866333 238,100 L238,93 L231,93 L231,107" id="Fill-142" fill="#D1E0E5"></path>
                <path d="M233.4,95.5 L233.4,103.89475 C234.7156,103.11625 235.6,101.66275 235.6,100 L235.6,95.5 L233.4,95.5 Z M231.2,109 C229.9834,109 229,107.992 229,106.75 L229,93.25 C229,92.008 229.9834,91 231.2,91 L237.8,91 C239.0166,91 240,92.008 240,93.25 L240,100 C240,104.9635 236.0532,109 231.2,109 L231.2,109 Z" id="Fill-143" fill="#193047"></path>
                <polygon id="Fill-144" fill="#D1E0E5" points="206 91 238 91 238 86 206 86"></polygon>
                <path d="M206.555556,91.3333333 L238.444444,91.3333333 L238.444444,86.6666667 L206.555556,86.6666667 L206.555556,91.3333333 Z M240.722222,96 L204.277778,96 C203.020444,96 202,94.9546667 202,93.6666667 L202,84.3333333 C202,83.0453333 203.020444,82 204.277778,82 L240.722222,82 C241.981833,82 243,83.0453333 243,84.3333333 L243,93.6666667 C243,94.9546667 241.981833,96 240.722222,96 L240.722222,96 Z" id="Fill-145" fill="#193047"></path>
                <path d="M222.5,84 C221.12,84 220,82.9795556 220,81.7222222 L220,45.2777778 C220,44.0204444 221.12,43 222.5,43 C223.88,43 225,44.0204444 225,45.2777778 L225,81.7222222 C225,82.9795556 223.88,84 222.5,84" id="Fill-146" fill="#193047"></path>
                <path d="M222.5,86 C220.016,86 218,83.9542857 218,81.4285714 L218,74.5714286 C218,72.048 220.016,70 222.5,70 C224.984,70 227,72.048 227,74.5714286 L227,81.4285714 C227,83.9542857 224.984,86 222.5,86" id="Fill-147" fill="#193047"></path>
                <polygon id="Fill-148" fill="#D1E0E5" points="190 48 204 48 204 43 190 43"></polygon>
                <path d="M190.6,48.3333333 L204.4,48.3333333 L204.4,43.6666667 L190.6,43.6666667 L190.6,48.3333333 Z M206.7,53 L188.3,53 C187.0304,53 186,51.9546667 186,50.6666667 L186,41.3333333 C186,40.0453333 187.0304,39 188.3,39 L206.7,39 C207.9696,39 209,40.0453333 209,41.3333333 L209,50.6666667 C209,51.9546667 207.9696,53 206.7,53 L206.7,53 Z" id="Fill-149" fill="#193047"></path>
                <path d="M184.192308,59 L134.269231,59 C133.016615,59 132,57.992 132,56.75 C132,55.508 133.016615,54.5 134.269231,54.5 L184.192308,54.5 C185.442654,54.5 186.461538,53.48975 186.461538,52.25 L186.461538,38.75 C186.461538,37.51025 185.442654,36.5 184.192308,36.5 L141.076923,36.5 C139.824308,36.5 138.807692,35.492 138.807692,34.25 C138.807692,33.008 139.824308,32 141.076923,32 L184.192308,32 C187.945615,32 191,35.0285 191,38.75 L191,52.25 C191,55.9715 187.945615,59 184.192308,59" id="Fill-150" fill="#193047"></path>
                <polygon id="Fill-151" fill="#ABBCCA" points="206 90 238 90 238 88 206 88"></polygon>
                <path d="M181.411765,36 L181.411765,47.25 C181.411765,49.73625 179.358529,51.75 176.823529,51.75 L152.538,51.75 C150.461824,51.75 148.468235,52.56 147,54 L183.705882,54 C184.972235,54 186,52.992 186,51.75 L186,38.25 C186,37.008 184.972235,36 183.705882,36 L181.411765,36" id="Fill-152" fill="#F8C65F"></path>
                <path d="M225,106.5 C225,107.88 223.88,109 222.5,109 C221.12,109 220,107.88 220,106.5 C220,105.12 221.12,104 222.5,104 C223.88,104 225,105.12 225,106.5" id="Fill-153" fill="#D9802E"></path>
                <path d="M225,115.5 C225,116.88 223.88,118 222.5,118 C221.12,118 220,116.88 220,115.5 C220,114.12 221.12,113 222.5,113 C223.88,113 225,114.12 225,115.5" id="Fill-154" fill="#D9802E"></path>
                <path d="M225,111.5 C225,112.88 223.88,114 222.5,114 C221.12,114 220,112.88 220,111.5 C220,110.12 221.12,109 222.5,109 C223.88,109 225,110.12 225,111.5" id="Fill-155" fill="#D9802E"></path>
                <polygon id="Fill-156" fill="#ABBCCA" points="234 97 236 97 236 95 234 95"></polygon>
                <polygon id="Fill-157" fill="#ABBCCA" points="209 97 211 97 211 95 209 95"></polygon>
                <polygon id="Fill-158" fill="#ABBCCA" points="190 47 204 47 204 45 190 45"></polygon>
                <path d="M220,46 C220,49.8663333 216.866333,53 213,53 C209.133667,53 206,49.8663333 206,46 C206,42.1336667 209.133667,39 213,39 C216.866333,39 220,42.1336667 220,46" id="Fill-159" fill="#D1E0E5"></path>
                <path d="M213.5,38.6 C209.6958,38.6 206.6,41.6958 206.6,45.5 C206.6,49.3042 209.6958,52.4 213.5,52.4 C217.3042,52.4 220.4,49.3042 220.4,45.5 C220.4,41.6958 217.3042,38.6 213.5,38.6 Z M213.5,57 C207.1589,57 202,51.8411 202,45.5 C202,39.1589 207.1589,34 213.5,34 C219.8411,34 225,39.1589 225,45.5 C225,51.8411 219.8411,57 213.5,57 L213.5,57 Z" id="Fill-160" fill="#193047"></path>
                <path d="M216,45.5 C216,46.88 214.88,48 213.5,48 C212.12,48 211,46.88 211,45.5 C211,44.12 212.12,43 213.5,43 C214.88,43 216,44.12 216,45.5" id="Fill-161" fill="#193047"></path>
                <path d="M403,137.75 C409.2145,137.75 414.25,142.7855 414.25,149 C414.25,155.2145 409.2145,160.25 403,160.25 C396.7855,160.25 391.75,155.2145 391.75,149 C391.75,142.7855 396.7855,137.75 403,137.75 Z M380.33575,152.1185 C381.94,152.438 383.227,153.61025 383.72425,155.1695 C384.06625,156.245 384.49375,157.28225 385.00225,158.26775 C385.7515,159.72575 385.675,161.46275 384.766,162.8285 L383.5645,164.6285 C382.84,165.7175 382.984,167.1665 383.90875,168.09125 C384.8335,169.016 386.2825,169.16 387.3715,168.4355 L389.1715,167.234 C390.53725,166.325 392.272,166.2485 393.73,166.99775 C394.71775,167.50625 395.755,167.936 396.8305,168.27575 C398.38975,168.773 399.562,170.06 399.8815,171.66425 L400.309,173.795 C400.5655,175.0775 401.69275,176 403,176 C404.30725,176 405.4345,175.0775 405.691,173.795 L406.1185,171.66425 C406.438,170.06 407.61025,168.773 409.1695,168.27575 C410.245,167.936 411.28225,167.50625 412.27,166.99775 C413.728,166.2485 415.46275,166.325 416.8285,167.234 L418.6285,168.4355 C419.7175,169.16 421.1665,169.016 422.09125,168.09125 C423.016,167.1665 423.16,165.7175 422.4355,164.6285 L421.234,162.8285 C420.325,161.46275 420.2485,159.72575 420.99775,158.26775 C421.50625,157.28225 421.93375,156.245 422.27575,155.1695 C422.773,153.61025 424.06,152.438 425.66425,152.1185 L427.795,151.691 C429.0775,151.4345 430,150.30725 430,149 C430,147.69275 429.0775,146.5655 427.795,146.309 L425.66425,145.8815 C424.06,145.562 422.773,144.38975 422.27575,142.8305 C421.93375,141.755 421.50625,140.71775 420.99775,139.73 C420.2485,138.272 420.325,136.53725 421.234,135.17375 L422.4355,133.3715 C423.16,132.2825 423.016,130.8335 422.09125,129.90875 C421.1665,128.984 419.7175,128.84 418.6285,129.5645 L416.82625,130.76825 C415.46275,131.675 413.72575,131.7515 412.26775,131.00225 C411.28,130.49375 410.245,130.064 409.1695,129.72425 C407.61025,129.227 406.438,127.94 406.1185,126.33575 L405.691,124.20725 C405.4345,122.92475 404.30725,122 403,122 C401.69275,122 400.5655,122.92475 400.309,124.20725 L399.8815,126.33575 C399.562,127.94 398.38975,129.227 396.8305,129.72425 C395.755,130.064 394.72,130.49375 393.73225,131.00225 C392.27425,131.7515 390.53725,131.675 389.17375,130.76825 L387.3715,129.5645 C386.2825,128.84 384.8335,128.984 383.90875,129.90875 C382.984,130.8335 382.84,132.2825 383.5645,133.3715 L384.766,135.17375 C385.675,136.53725 385.7515,138.272 385.00225,139.73 C384.49375,140.71775 384.06625,141.755 383.72425,142.8305 C383.227,144.38975 381.94,145.562 380.33575,145.8815 L378.205,146.309 C376.9225,146.5655 376,147.69275 376,149 C376,150.30725 376.9225,151.4345 378.205,151.691 L380.33575,152.1185 L380.33575,152.1185 Z" id="Fill-162" fill="#637F8D"></path>
                <path d="M403.5,140.423077 C398.494077,140.423077 394.423077,144.494077 394.423077,149.5 C394.423077,154.505923 398.494077,158.576923 403.5,158.576923 C408.505923,158.576923 412.576923,154.505923 412.576923,149.5 C412.576923,144.494077 408.505923,140.423077 403.5,140.423077 Z M403.5,163.115385 C395.991115,163.115385 389.884615,157.008885 389.884615,149.5 C389.884615,141.991115 395.991115,135.884615 403.5,135.884615 C411.008885,135.884615 417.115385,141.991115 417.115385,149.5 C417.115385,157.008885 411.008885,163.115385 403.5,163.115385 Z M392.044923,164.871769 C393.120538,164.871769 394.196154,165.123654 395.187808,165.631962 C396.081885,166.094885 397.019077,166.478385 397.963077,166.777923 C400.329885,167.531308 402.097615,169.501 402.580962,171.913192 L403.009846,174.059885 C403.102885,174.525077 403.897115,174.525077 403.990154,174.059885 L404.419038,171.913192 C404.902385,169.501 406.670115,167.531308 409.032385,166.777923 C409.980923,166.478385 410.918115,166.094885 411.812192,165.631962 C414.017885,164.497346 416.657,164.638038 418.701577,165.999577 L420.5215,167.213615 C420.716654,167.340692 420.979885,167.318 421.150077,167.150077 C421.318,166.982154 421.342962,166.718923 421.213615,166.5215 L419.999577,164.703846 C418.640308,162.657 418.497346,160.015615 419.631962,157.809923 C420.088077,156.927192 420.471577,155.992269 420.777923,155.034654 C421.531308,152.672385 423.498731,150.902385 425.913192,150.419038 L428.059885,149.990154 C428.293615,149.9425 428.461538,149.736 428.461538,149.5 C428.461538,149.264 428.293615,149.0575 428.059885,149.009846 L425.913192,148.580962 C423.498731,148.097615 421.531308,146.329885 420.777923,143.967615 C420.473846,143.01 420.088077,142.075077 419.631962,141.187808 C418.497346,138.982115 418.640308,136.343 419.999577,134.298423 L421.213615,132.4785 C421.342962,132.281077 421.318,132.017846 421.150077,131.849923 C420.982154,131.682 420.718923,131.661577 420.5215,131.786385 L418.701577,133.000423 C416.654731,134.361962 414.011077,134.500385 411.809923,133.368038 C410.913577,132.907385 409.976385,132.521615 409.036923,132.222077 C406.670115,131.468692 404.902385,129.501269 404.419038,127.086808 L403.990154,124.940115 C403.897115,124.474923 403.102885,124.474923 403.009846,124.940115 L402.580962,127.086808 C402.097615,129.501269 400.329885,131.468692 397.967615,132.222077 C397.023615,132.521615 396.086423,132.907385 395.190077,133.368038 C392.982115,134.502654 390.340731,134.364231 388.298423,133.000423 L386.4785,131.786385 C386.281077,131.657038 386.015577,131.682 385.849923,131.849923 C385.682,132.017846 385.657038,132.281077 385.786385,132.4785 L387.000423,134.296154 C388.359692,136.343 388.502654,138.982115 387.368038,141.187808 C386.911923,142.075077 386.526154,143.01 386.222077,143.967615 C385.468692,146.329885 383.501269,148.097615 381.086808,148.580962 L378.940115,149.009846 C378.706385,149.0575 378.538462,149.264 378.538462,149.5 C378.538462,149.736 378.706385,149.9425 378.940115,149.990154 L381.086808,150.419038 C383.503538,150.902385 385.468692,152.672385 386.222077,155.034654 C386.528423,155.992269 386.911923,156.927192 387.368038,157.809923 C388.502654,160.015615 388.359692,162.657 387.000423,164.701577 L385.786385,166.5215 C385.657038,166.718923 385.682,166.982154 385.849923,167.150077 C386.017846,167.320269 386.283346,167.342962 386.4785,167.213615 L388.296154,166.001846 C389.423962,165.250731 390.731038,164.871769 392.044923,164.871769 Z M403.5,179 C401.105962,179 399.029615,177.298077 398.559885,174.951692 L398.131,172.805 C397.969885,172.006231 397.379885,171.354962 396.587923,171.105346 C395.405654,170.728654 394.234731,170.247577 393.113731,169.671192 C392.369423,169.287692 391.486692,169.326269 390.810462,169.780115 L388.995077,170.989615 C387.007231,172.314846 384.334077,172.053885 382.641231,170.358769 C380.948385,168.668192 380.682885,165.995038 382.010385,164.004923 L383.222154,162.187269 C383.671462,161.513308 383.712308,160.628308 383.328808,159.884 C382.7615,158.778885 382.278154,157.610231 381.894654,156.412077 C381.645038,155.620115 380.993769,155.030115 380.195,154.869 L378.048308,154.440115 C375.701923,153.970385 374,151.894038 374,149.5 C374,147.105962 375.701923,145.029615 378.048308,144.559885 L380.195,144.131 C380.993769,143.972154 381.645038,143.379885 381.894654,142.587923 C382.278154,141.392038 382.759231,140.223385 383.328808,139.113731 C383.712308,138.369423 383.671462,137.486692 383.219885,136.810462 L382.010385,134.995077 C380.682885,133.004962 380.948385,130.331808 382.641231,128.641231 C384.334077,126.948385 387.007231,126.685154 388.995077,128.010385 L390.815,129.224423 C391.491231,129.671462 392.371692,129.714577 393.116,129.328808 C394.239269,128.752423 395.410192,128.271346 396.592462,127.896923 C397.379885,127.645038 397.969885,126.993769 398.131,126.197269 L398.559885,124.048308 C399.029615,121.701923 401.108231,120 403.5,120 C405.891769,120 407.970385,121.701923 408.440115,124.048308 L408.869,126.197269 C409.030115,126.993769 409.620115,127.645038 410.412077,127.896923 C411.589808,128.271346 412.760731,128.752423 413.884,129.328808 C414.628308,129.714577 415.511038,129.671462 416.185,129.224423 L418.004923,128.010385 C419.997308,126.682885 422.668192,126.950654 424.358769,128.641231 C426.051615,130.331808 426.317115,133.004962 424.989615,134.995077 L423.777846,136.812731 C423.328538,137.486692 423.287692,138.369423 423.671192,139.113731 C424.240769,140.223385 424.721846,141.392038 425.105346,142.587923 C425.354962,143.379885 426.006231,143.972154 426.805,144.131 L428.951692,144.559885 C431.298077,145.029615 433,147.105962 433,149.5 C433,151.894038 431.298077,153.970385 428.951692,154.440115 L426.805,154.869 C426.006231,155.030115 425.354962,155.620115 425.105346,156.412077 C424.721846,157.610231 424.2385,158.778885 423.671192,159.884 C423.287692,160.628308 423.328538,161.513308 423.780115,162.189538 L424.989615,164.004923 C426.317115,165.995038 426.051615,168.668192 424.358769,170.358769 C422.665923,172.053885 419.992769,172.314846 418.004923,170.989615 L416.187269,169.777846 C415.511038,169.326269 414.630577,169.287692 413.886269,169.671192 C412.765269,170.247577 411.594346,170.728654 410.407538,171.105346 C409.620115,171.354962 409.030115,172.006231 408.869,172.805 L408.440115,174.951692 C407.970385,177.298077 405.894038,179 403.5,179 L403.5,179 Z" id="Fill-163" fill="#193047"></path>
                <path d="M428.594685,149.338603 L426.428427,148.905253 C423.923261,148.405409 421.990574,146.525265 421.200554,144.094834 C420.900575,143.179983 420.525029,142.283475 420.089946,141.432824 C418.944989,139.206457 419.086963,136.537569 420.460912,134.473995 L421.686016,132.635122 C421.816541,132.435643 421.791352,132.167379 421.621898,132 L416.652785,136.975505 C415.842156,137.787177 415.759719,139.073471 416.465012,139.979151 C419.164821,143.452833 420.470071,148.066066 419.542656,152.972785 C418.347321,159.291906 413.259133,164.388933 406.950421,165.585805 C402.045425,166.516706 397.438119,165.207483 393.9689,162.504202 C393.064384,161.798001 391.779742,161.880544 390.969113,162.692217 L386,167.667722 C386.169454,167.839686 386.435084,167.8672 386.632016,167.734214 L388.468527,166.507535 C389.604324,165.748598 390.925604,165.363398 392.251464,165.363398 C393.336884,165.363398 394.422303,165.620198 395.422995,166.133799 C396.277133,166.574028 397.174779,166.950057 398.090744,167.250421 C400.511183,168.043751 402.382043,169.978924 402.883534,172.480434 L403.316328,174.649479 C403.410214,175.117222 404.211684,175.117222 404.30557,174.647186 L404.738364,172.480434 C405.239855,169.974338 407.115294,168.041458 409.542603,167.248128 C410.451699,166.947764 411.347055,166.574028 412.198903,166.133799 C414.426989,164.987369 417.090159,165.131819 419.153371,166.507535 L420.987592,167.731922 C421.182235,167.862615 421.452444,167.841979 421.621898,167.667722 C421.791352,167.500343 421.816541,167.232078 421.686016,167.030307 L420.460912,165.193726 C419.086963,163.130153 418.944989,160.461264 420.089946,158.230312 C420.529609,157.379661 420.902865,156.483153 421.200554,155.568302 C421.992864,153.140164 423.925551,151.262312 426.428427,150.762469 L428.594685,150.329118 C428.830546,150.280968 429,150.072318 429,149.833861 C429,149.595403 428.830546,149.386753 428.594685,149.338603" id="Fill-164" fill="#536F7C"></path>
                <path d="M390.25745,149.802153 C390.25745,142.32322 396.32322,136.25745 403.802153,136.25745 C407.542749,136.25745 410.928925,137.774457 413.378258,140.226048 C413.378258,140.226048 415.089406,138.514901 412.834213,136.8331 C410.3307,134.968446 407.158982,134 403.802153,134 C395.07485,134 388,141.07485 388,149.802153 C388,153.158982 388.968446,156.3307 390.8331,158.834213 C392.514901,161.089406 394.226048,159.378258 394.226048,159.378258 C391.774457,156.928925 390.25745,153.542749 390.25745,149.802153" id="Fill-165" fill="#536F7C"></path>
                <text id="JS" font-family="NotoSans-Bold, Noto Sans" font-size="20" font-weight="bold" fill="#193047">
                    <tspan x="152.363281" y="100">JS</tspan>
                </text>
                <text id="Vue" font-family="NotoSans-Bold, Noto Sans" font-size="20" font-weight="bold" fill="#193047">
                    <tspan x="36.0693359" y="194">Vue</tspan>
                </text>
            </g>
        </g>
    </g>
</svg>