<?xml version="1.0" encoding="UTF-8"?>
<svg width="40px" height="34px" viewBox="0 0 40 34" version="1.1" xmlns="http://www.w3.org/2000/svg" xmlns:xlink="http://www.w3.org/1999/xlink">
    <!-- Generator: Sketch 48.2 (47327) - http://www.bohemiancoding.com/sketch -->
    <title>download</title>
    <desc>Created with Sketch.</desc>
    <defs></defs>
    <g id="Desktop-HD" stroke="none" stroke-width="1" fill="none" fill-rule="evenodd" transform="translate(-767.000000, -1207.000000)">
        <g id="download" transform="translate(767.000000, 1207.000000)" fill="#FEA94B" fill-rule="nonzero">
            <path d="M40,28.3839286 L40,31.7232143 C40,32.1754092 39.8350694,32.5667318 39.5052083,32.8971819 C39.1753472,33.2276321 38.7847222,33.3928571 38.3333333,33.3928571 L1.66666667,33.3928571 C1.21527778,33.3928571 0.824652778,33.2276321 0.494791667,32.8971819 C0.164930556,32.5667318 0,32.1754092 0,31.7232143 L0,28.3839286 C0,27.9317336 0.164930556,27.5404111 0.494791667,27.2099609 C0.824652778,26.8795108 1.21527778,26.7142857 1.66666667,26.7142857 L38.3333333,26.7142857 C38.7847222,26.7142857 39.1753472,26.8795108 39.5052083,27.2099609 C39.8350694,27.5404111 40,27.9317336 40,28.3839286 Z M40,15.0267857 L40,18.3660714 C40,18.8182664 39.8350694,19.2095889 39.5052083,19.5400391 C39.1753472,19.8704892 38.7847222,20.0357143 38.3333333,20.0357143 L1.66666667,20.0357143 C1.21527778,20.0357143 0.824652778,19.8704892 0.494791667,19.5400391 C0.164930556,19.2095889 0,18.8182664 0,18.3660714 L0,15.0267857 C0,14.5745908 0.164930556,14.1832682 0.494791667,13.8528181 C0.824652778,13.5223679 1.21527778,13.3571429 1.66666667,13.3571429 L38.3333333,13.3571429 C38.7847222,13.3571429 39.1753472,13.5223679 39.5052083,13.8528181 C39.8350694,14.1832682 40,14.5745908 40,15.0267857 Z M40,1.66964286 L40,5.00892857 C40,5.46112351 39.8350694,5.85244606 39.5052083,6.18289621 C39.1753472,6.51334635 38.7847222,6.67857143 38.3333333,6.67857143 L1.66666667,6.67857143 C1.21527778,6.67857143 0.824652778,6.51334635 0.494791667,6.18289621 C0.164930556,5.85244606 0,5.46112351 0,5.00892857 L0,1.66964286 C0,1.21744792 0.164930556,0.826125372 0.494791667,0.495675223 C0.824652778,0.165225074 1.21527778,0 1.66666667,0 L38.3333333,0 C38.7847222,0 39.1753472,0.165225074 39.5052083,0.495675223 C39.8350694,0.826125372 40,1.21744792 40,1.66964286 Z" id="Shape"></path>
        </g>
    </g>
</svg>