<?xml version="1.0" encoding="UTF-8"?>
<svg width="16px" height="19px" viewBox="0 0 16 19" version="1.1" xmlns="http://www.w3.org/2000/svg" xmlns:xlink="http://www.w3.org/1999/xlink">
    <!-- Generator: Sketch 46.2 (44496) - http://www.bohemiancoding.com/sketch -->
    <title>file-text-o</title>
    <desc>Created with Sketch.</desc>
    <defs></defs>
    <g id="Page-1" stroke="none" stroke-width="1" fill="none" fill-rule="evenodd">
        <g id="Desktop-HD" transform="translate(-339.000000, -2255.000000)" fill-rule="nonzero" fill="#FF9F35">
            <g id="file-text-o" transform="translate(339.000000, 2255.000000)">
                <path d="M15.2916667,3.95833333 C15.4861111,4.15277778 15.6527778,4.41666667 15.7916667,4.75 C15.9305556,5.08333333 16,5.38888889 16,5.66666667 L16,17.6666667 C16,17.9444444 15.9027778,18.1805556 15.7083333,18.375 C15.5138889,18.5694444 15.2777778,18.6666667 15,18.6666667 L1,18.6666667 C0.722222222,18.6666667 0.486111111,18.5694444 0.291666667,18.375 C0.0972222222,18.1805556 0,17.9444444 0,17.6666667 L0,1 C0,0.722222222 0.0972222222,0.486111111 0.291666667,0.291666667 C0.486111111,0.0972222222 0.722222222,0 1,0 L10.3333333,0 C10.6111111,0 10.9166667,0.0694444444 11.25,0.208333333 C11.5833333,0.347222222 11.8472222,0.513888889 12.0416667,0.708333333 L15.2916667,3.95833333 Z M10.6666667,1.41666667 L10.6666667,5.33333333 L14.5833333,5.33333333 C14.5138889,5.13194444 14.4375,4.98958333 14.3541667,4.90625 L11.09375,1.64583333 C11.0104167,1.5625 10.8680556,1.48611111 10.6666667,1.41666667 Z M14.6666667,17.3333333 L14.6666667,6.66666667 L10.3333333,6.66666667 C10.0555556,6.66666667 9.81944444,6.56944444 9.625,6.375 C9.43055556,6.18055556 9.33333333,5.94444444 9.33333333,5.66666667 L9.33333333,1.33333333 L1.33333333,1.33333333 L1.33333333,17.3333333 L14.6666667,17.3333333 Z M4,8.33333333 C4,8.23611111 4.03125,8.15625 4.09375,8.09375 C4.15625,8.03125 4.23611111,8 4.33333333,8 L11.6666667,8 C11.7638889,8 11.84375,8.03125 11.90625,8.09375 C11.96875,8.15625 12,8.23611111 12,8.33333333 L12,9 C12,9.09722222 11.96875,9.17708333 11.90625,9.23958333 C11.84375,9.30208333 11.7638889,9.33333333 11.6666667,9.33333333 L4.33333333,9.33333333 C4.23611111,9.33333333 4.15625,9.30208333 4.09375,9.23958333 C4.03125,9.17708333 4,9.09722222 4,9 L4,8.33333333 Z M11.6666667,10.6666667 C11.7638889,10.6666667 11.84375,10.6979167 11.90625,10.7604167 C11.96875,10.8229167 12,10.9027778 12,11 L12,11.6666667 C12,11.7638889 11.96875,11.84375 11.90625,11.90625 C11.84375,11.96875 11.7638889,12 11.6666667,12 L4.33333333,12 C4.23611111,12 4.15625,11.96875 4.09375,11.90625 C4.03125,11.84375 4,11.7638889 4,11.6666667 L4,11 C4,10.9027778 4.03125,10.8229167 4.09375,10.7604167 C4.15625,10.6979167 4.23611111,10.6666667 4.33333333,10.6666667 L11.6666667,10.6666667 Z M11.6666667,13.3333333 C11.7638889,13.3333333 11.84375,13.3645833 11.90625,13.4270833 C11.96875,13.4895833 12,13.5694444 12,13.6666667 L12,14.3333333 C12,14.4305556 11.96875,14.5104167 11.90625,14.5729167 C11.84375,14.6354167 11.7638889,14.6666667 11.6666667,14.6666667 L4.33333333,14.6666667 C4.23611111,14.6666667 4.15625,14.6354167 4.09375,14.5729167 C4.03125,14.5104167 4,14.4305556 4,14.3333333 L4,13.6666667 C4,13.5694444 4.03125,13.4895833 4.09375,13.4270833 C4.15625,13.3645833 4.23611111,13.3333333 4.33333333,13.3333333 L11.6666667,13.3333333 Z" id="Shape"></path>
            </g>
        </g>
    </g>
</svg>