<?xml version="1.0" encoding="UTF-8"?>
<svg width="30px" height="29px" viewBox="0 0 30 29" version="1.1" xmlns="http://www.w3.org/2000/svg" xmlns:xlink="http://www.w3.org/1999/xlink">
    <!-- Generator: Sketch 48.2 (47327) - http://www.bohemiancoding.com/sketch -->
    <title>linkedin</title>
    <desc>Created with Sketch.</desc>
    <defs></defs>
    <g id="Desktop-HD" stroke="none" stroke-width="1" fill="none" fill-rule="evenodd" transform="translate(-444.000000, -1213.000000)">
        <g id="linkedin" transform="translate(444.000000, 1213.000000)" fill="#FEA94B" fill-rule="nonzero">
            <path d="M6.81640625,9.42302452 L6.81640625,29 L0.37109375,29 L0.37109375,9.42302452 L6.81640625,9.42302452 Z M7.2265625,3.3780654 C7.23958333,4.33946412 6.91080729,5.1428247 6.24023438,5.78814714 C5.56966146,6.43346957 4.6875,6.75613079 3.59375,6.75613079 L3.5546875,6.75613079 C2.48697917,6.75613079 1.62760417,6.43346957 0.9765625,5.78814714 C0.325520833,5.1428247 0,4.33946412 0,3.3780654 C0,2.40349682 0.335286458,1.59684378 1.00585938,0.958106267 C1.67643229,0.319368756 2.55208333,0 3.6328125,0 C4.71354167,0 5.57942708,0.319368756 6.23046875,0.958106267 C6.88151042,1.59684378 7.21354167,2.40349682 7.2265625,3.3780654 Z M30,17.7792916 L30,29 L23.5742188,29 L23.5742188,18.5299728 C23.5742188,17.147139 23.3105469,16.0639192 22.7832031,15.2803134 C22.2558594,14.4967075 21.4322917,14.1049046 20.3125,14.1049046 C19.4921875,14.1049046 18.8053385,14.3320845 18.2519531,14.7864441 C17.6985677,15.2408038 17.2851563,15.8038147 17.0117188,16.4754768 C16.8684896,16.8705722 16.796875,17.403951 16.796875,18.0756131 L16.796875,29 L10.3710938,29 C10.3971354,23.7452316 10.4101563,19.4847866 10.4101563,16.2186649 C10.4101563,12.9525431 10.4036458,11.003406 10.390625,10.3712534 L10.3710938,9.42302452 L16.796875,9.42302452 L16.796875,12.2677112 L16.7578125,12.2677112 C17.0182292,11.8462761 17.2851563,11.4775204 17.5585938,11.1614441 C17.8320313,10.8453678 18.1998698,10.5029519 18.6621094,10.1341962 C19.124349,9.76544051 19.6907552,9.47899637 20.3613281,9.27486376 C21.031901,9.07073115 21.7773438,8.96866485 22.5976563,8.96866485 C24.8242188,8.96866485 26.6145833,9.71605359 27.96875,11.2108311 C29.3229167,12.7056085 30,14.8950954 30,17.7792916 Z" id="Shape"></path>
        </g>
    </g>
</svg>