<?xml version="1.0" encoding="UTF-8"?>
<svg width="30px" height="25px" viewBox="0 0 30 25" version="1.1" xmlns="http://www.w3.org/2000/svg" xmlns:xlink="http://www.w3.org/1999/xlink">
    <!-- Generator: Sketch 48.2 (47327) - http://www.bohemiancoding.com/sketch -->
    <title>twitter</title>
    <desc>Created with Sketch.</desc>
    <defs></defs>
    <g id="Desktop-HD" stroke="none" stroke-width="1" fill="none" fill-rule="evenodd" transform="translate(-497.000000, -1228.000000)">
        <g id="twitter" transform="translate(497.000000, 1228.000000)" fill="#FEA94B" fill-rule="nonzero">
            <path d="M30,2.89572193 C29.1497462,4.14037433 28.1218274,5.20086898 26.9162437,6.07720588 C26.928934,6.25501337 26.9352792,6.5217246 26.9352792,6.87733957 C26.9352792,8.52840909 26.6941624,10.1763035 26.2119289,11.8210227 C25.7296954,13.465742 24.9968274,15.0437834 24.0133249,16.5551471 C23.0298223,18.0665107 21.8591371,19.403242 20.501269,20.5653409 C19.143401,21.7274398 17.5063452,22.6545789 15.5901015,23.346758 C13.6738579,24.0389372 11.6243655,24.3850267 9.44162437,24.3850267 C6.00253807,24.3850267 2.85532995,23.464238 0,21.6226604 C0.444162437,21.6734626 0.939086294,21.6988636 1.48477157,21.6988636 C4.34010152,21.6988636 6.88451777,20.8225267 9.1180203,19.0698529 C7.78553299,19.0444519 6.59263959,18.6348596 5.5393401,17.8410762 C4.48604061,17.0472928 3.76269036,16.0344251 3.36928934,14.8024733 C3.78807107,14.8659759 4.1751269,14.8977273 4.53045685,14.8977273 C5.07614213,14.8977273 5.61548223,14.8278743 6.14847716,14.6881684 C4.72715736,14.3960561 3.5501269,13.6880013 2.61738579,12.564004 C1.68464467,11.4400067 1.21827411,10.1350267 1.21827411,8.64906417 L1.21827411,8.57286096 C2.08121827,9.05548128 3.00761421,9.31584225 3.99746193,9.35394385 C3.15989848,8.79512032 2.49365482,8.06483957 1.99873096,7.1631016 C1.50380711,6.26136364 1.25634518,5.28342246 1.25634518,4.22927807 C1.25634518,3.11163102 1.53553299,2.07653743 2.09390863,1.12399733 C3.62944162,3.01637701 5.49809645,4.53091578 7.6998731,5.66761364 C9.90164975,6.8043115 12.2588832,7.4361631 14.7715736,7.56316845 C14.6700508,7.08054813 14.6192893,6.61062834 14.6192893,6.15340909 C14.6192893,4.45153743 15.2189086,3.00050134 16.4181472,1.8003008 C17.6173858,0.600100267 19.0672589,0 20.7677665,0 C22.5444162,0 24.0418782,0.647727273 25.2601523,1.94318182 C26.643401,1.67647059 27.9441624,1.18114973 29.1624365,0.457219251 C28.6928934,1.91778075 27.7918782,3.04812834 26.4593909,3.84826203 C27.6395939,3.72125668 28.819797,3.40374332 30,2.89572193 Z" id="Shape"></path>
        </g>
    </g>
</svg>