<?xml version="1.0" encoding="UTF-8"?>
<svg width="16px" height="15px" viewBox="0 0 16 15" version="1.1" xmlns="http://www.w3.org/2000/svg" xmlns:xlink="http://www.w3.org/1999/xlink">
    <!-- Generator: Sketch 46.2 (44496) - http://www.bohemiancoding.com/sketch -->
    <title>cogs</title>
    <desc>Created with Sketch.</desc>
    <defs></defs>
    <g id="Page-1" stroke="none" stroke-width="1" fill="none" fill-rule="evenodd">
        <g id="Desktop-HD" transform="translate(-339.000000, -2333.000000)" fill-rule="nonzero" fill="#FF9F35">
            <g id="cogs" transform="translate(339.000000, 2333.000000)">
                <path d="M7.46666667,7.31727103 C7.46666667,6.72967199 7.25833333,6.22799546 6.84166667,5.81224142 C6.425,5.39648739 5.92222222,5.18861037 5.33333333,5.18861037 C4.74444444,5.18861037 4.24166667,5.39648739 3.825,5.81224142 C3.40833333,6.22799546 3.2,6.72967199 3.2,7.31727103 C3.2,7.90487007 3.40833333,8.40654661 3.825,8.82230064 C4.24166667,9.23805468 4.74444444,9.44593169 5.33333333,9.44593169 C5.92222222,9.44593169 6.425,9.23805468 6.84166667,8.82230064 C7.25833333,8.40654661 7.46666667,7.90487007 7.46666667,7.31727103 Z M13.8666667,11.5745924 C13.8666667,11.2863362 13.7611111,11.0368838 13.55,10.8262351 C13.3388889,10.6155864 13.0888889,10.510262 12.8,10.510262 C12.5111111,10.510262 12.2611111,10.6155864 12.05,10.8262351 C11.8388889,11.0368838 11.7333333,11.2863362 11.7333333,11.5745924 C11.7333333,11.8683919 11.8375,12.1192301 12.0458333,12.3271072 C12.2541667,12.5349842 12.5055556,12.6389227 12.8,12.6389227 C13.0944444,12.6389227 13.3458333,12.5349842 13.5541667,12.3271072 C13.7625,12.1192301 13.8666667,11.8683919 13.8666667,11.5745924 Z M13.8666667,3.0599497 C13.8666667,2.77169357 13.7611111,2.52224115 13.55,2.31159244 C13.3388889,2.10094373 13.0888889,1.99561937 12.8,1.99561937 C12.5111111,1.99561937 12.2611111,2.10094373 12.05,2.31159244 C11.8388889,2.52224115 11.7333333,2.77169357 11.7333333,3.0599497 C11.7333333,3.35374922 11.8375,3.60458749 12.0458333,3.81246451 C12.2541667,4.02034153 12.5055556,4.12428004 12.8,4.12428004 C13.0944444,4.12428004 13.3458333,4.02034153 13.5541667,3.81246451 C13.7625,3.60458749 13.8666667,3.35374922 13.8666667,3.0599497 Z M10.6666667,6.56059869 L10.6666667,8.09888862 C10.6666667,8.15432249 10.6472222,8.20837051 10.6083333,8.26103269 C10.5694444,8.31369487 10.525,8.34279765 10.475,8.34834104 L9.18333333,8.54790298 C9.12222222,8.74192153 9.03333333,8.95257024 8.91666667,9.17984911 C9.10555556,9.44593169 9.35555556,9.76467646 9.66666667,10.1360834 C9.70555556,10.1970607 9.725,10.2524945 9.725,10.302385 C9.725,10.3689057 9.70555556,10.4215678 9.66666667,10.4603715 C9.53888889,10.6266732 9.30972222,10.8747397 8.97916667,11.2045713 C8.64861111,11.5344028 8.43055556,11.6993186 8.325,11.6993186 C8.26388889,11.6993186 8.20555556,11.6799167 8.15,11.641113 L7.19166667,10.8927557 C6.98611111,10.9980801 6.77222222,11.0840026 6.55,11.1505232 C6.48888889,11.7492091 6.425,12.1788216 6.35833333,12.4393608 C6.31944444,12.572402 6.23611111,12.6389227 6.10833333,12.6389227 L4.55833333,12.6389227 C4.49722222,12.6389227 4.44166667,12.618135 4.39166667,12.5765596 C4.34166667,12.5349842 4.31388889,12.4864795 4.30833333,12.4310457 L4.11666667,11.1588383 C3.92777778,11.1034045 3.71944444,11.017482 3.49166667,10.9010708 L2.50833333,11.641113 C2.46944444,11.6799167 2.41388889,11.6993186 2.34166667,11.6993186 C2.28055556,11.6993186 2.22222222,11.677145 2.16666667,11.6327979 C1.36666667,10.8955274 0.966666667,10.4520565 0.966666667,10.302385 C0.966666667,10.2524945 0.986111111,10.1998323 1.025,10.1443985 C1.08055556,10.0667911 1.19444444,9.9198913 1.36666667,9.7036992 C1.53888889,9.4875071 1.66944444,9.31843379 1.75833333,9.19647927 C1.63055556,8.95257024 1.53333333,8.72529137 1.46666667,8.51464265 L0.2,8.31508072 C0.144444444,8.30953733 0.0972222222,8.28320624 0.0583333333,8.23608745 C0.0194444444,8.18896866 0,8.13492063 0,8.07394338 L0,6.53565344 C0,6.48021957 0.0194444444,6.42617155 0.0583333333,6.37350937 C0.0972222222,6.32084719 0.141666667,6.29174441 0.191666667,6.28620102 L1.48333333,6.08663908 C1.54444444,5.89262053 1.63333333,5.68197182 1.75,5.45469295 C1.56111111,5.18861037 1.31111111,4.86986561 1,4.49845867 C0.961111111,4.43748141 0.941666667,4.38204754 0.941666667,4.33215705 C0.941666667,4.26563641 0.961111111,4.21020254 1,4.16585544 C1.12222222,3.99955382 1.35,3.7528731 1.68333333,3.42581326 C2.01666667,3.09875341 2.23611111,2.93522349 2.34166667,2.93522349 C2.40277778,2.93522349 2.46111111,2.95462535 2.51666667,2.99342906 L3.475,3.74178632 C3.66388889,3.64200535 3.87777778,3.55331116 4.11666667,3.47570374 C4.17777778,2.87701793 4.24166667,2.45017712 4.30833333,2.19518131 C4.34722222,2.06214002 4.43055556,1.99561937 4.55833333,1.99561937 L6.10833333,1.99561937 C6.16944444,1.99561937 6.225,2.01640707 6.275,2.05798248 C6.325,2.09955788 6.35277778,2.14806252 6.35833333,2.20349639 L6.55,3.47570374 C6.73888889,3.53113761 6.94722222,3.61706011 7.175,3.73347124 L8.15833333,2.99342906 C8.20277778,2.95462535 8.25833333,2.93522349 8.325,2.93522349 C8.38611111,2.93522349 8.44444444,2.95739704 8.5,3.00174414 C9.3,3.73901463 9.7,4.1824856 9.7,4.33215705 C9.7,4.37650415 9.68055556,4.42916633 9.64166667,4.49014359 C9.575,4.57883778 9.45833333,4.72850923 9.29166667,4.93915795 C9.125,5.14980666 9,5.31610827 8.91666667,5.43806279 C9.04444444,5.70414537 9.13888889,5.93142424 9.2,6.11989941 L10.4666667,6.31114626 C10.5222222,6.32223304 10.5694444,6.35133582 10.6083333,6.39845461 C10.6472222,6.4455734 10.6666667,6.49962143 10.6666667,6.56059869 Z M16,10.9925367 L16,12.156648 C16,12.2453422 15.5861111,12.3312647 14.7583333,12.4144155 C14.6916667,12.564087 14.6083333,12.708215 14.5083333,12.8467997 C14.7916667,13.4732025 14.9333333,13.8556962 14.9333333,13.9942808 C14.9333333,14.0164544 14.9222222,14.0358563 14.9,14.0524864 C14.2222222,14.4460669 13.8777778,14.6428571 13.8666667,14.6428571 C13.8222222,14.6428571 13.6944444,14.5125875 13.4833333,14.2520483 C13.2722222,13.9915092 13.1277778,13.803034 13.05,13.6866229 C12.9388889,13.6977096 12.8555556,13.703253 12.8,13.703253 C12.7444444,13.703253 12.6611111,13.6977096 12.55,13.6866229 C12.4722222,13.803034 12.3277778,13.9915092 12.1166667,14.2520483 C11.9055556,14.5125875 11.7777778,14.6428571 11.7333333,14.6428571 C11.7222222,14.6428571 11.3777778,14.4460669 10.7,14.0524864 C10.6777778,14.0358563 10.6666667,14.0164544 10.6666667,13.9942808 C10.6666667,13.8556962 10.8083333,13.4732025 11.0916667,12.8467997 C10.9916667,12.708215 10.9083333,12.564087 10.8416667,12.4144155 C10.0138889,12.3312647 9.6,12.2453422 9.6,12.156648 L9.6,10.9925367 C9.6,10.9038425 10.0138889,10.81792 10.8416667,10.7347692 C10.9138889,10.574011 10.9972222,10.4298829 11.0916667,10.302385 C10.8083333,9.67598226 10.6666667,9.29348855 10.6666667,9.15490387 C10.6666667,9.13273032 10.6777778,9.11332847 10.7,9.0966983 C10.7222222,9.08561153 10.8194444,9.03017766 10.9916667,8.93039669 C11.1638889,8.83061572 11.3277778,8.73637814 11.4833333,8.64768395 C11.6388889,8.55898975 11.7222222,8.51464265 11.7333333,8.51464265 C11.7777778,8.51464265 11.9055556,8.64352641 12.1166667,8.90129391 C12.3277778,9.15906141 12.4722222,9.34615073 12.55,9.46256186 C12.6611111,9.45147508 12.7444444,9.44593169 12.8,9.44593169 C12.8555556,9.44593169 12.9388889,9.45147508 13.05,9.46256186 C13.3333333,9.06898137 13.5888889,8.75855169 13.8166667,8.53127282 L13.8666667,8.51464265 C13.8888889,8.51464265 14.2333333,8.7086612 14.9,9.0966983 C14.9222222,9.11332847 14.9333333,9.13273032 14.9333333,9.15490387 C14.9333333,9.29348855 14.7916667,9.67598226 14.5083333,10.302385 C14.6027778,10.4298829 14.6861111,10.574011 14.7583333,10.7347692 C15.5861111,10.81792 16,10.9038425 16,10.9925367 Z M16,2.47789405 L16,3.64200535 C16,3.73069955 15.5861111,3.81662205 14.7583333,3.89977286 C14.6916667,4.04944431 14.6083333,4.19357238 14.5083333,4.33215705 C14.7916667,4.9585598 14.9333333,5.34105351 14.9333333,5.47963819 C14.9333333,5.50181174 14.9222222,5.5212136 14.9,5.53784376 C14.2222222,5.93142424 13.8777778,6.12821449 13.8666667,6.12821449 C13.8222222,6.12821449 13.6944444,5.99794489 13.4833333,5.73740569 C13.2722222,5.4768665 13.1277778,5.28839134 13.05,5.17198021 C12.9388889,5.18306698 12.8555556,5.18861037 12.8,5.18861037 C12.7444444,5.18861037 12.6611111,5.18306698 12.55,5.17198021 C12.4722222,5.28839134 12.3277778,5.4768665 12.1166667,5.73740569 C11.9055556,5.99794489 11.7777778,6.12821449 11.7333333,6.12821449 C11.7222222,6.12821449 11.3777778,5.93142424 10.7,5.53784376 C10.6777778,5.5212136 10.6666667,5.50181174 10.6666667,5.47963819 C10.6666667,5.34105351 10.8083333,4.9585598 11.0916667,4.33215705 C10.9916667,4.19357238 10.9083333,4.04944431 10.8416667,3.89977286 C10.0138889,3.81662205 9.6,3.73069955 9.6,3.64200535 L9.6,2.47789405 C9.6,2.38919986 10.0138889,2.30327736 10.8416667,2.22012655 C10.9138889,2.05936832 10.9972222,1.91524026 11.0916667,1.78774235 C10.8083333,1.16133961 10.6666667,0.778845894 10.6666667,0.640261215 C10.6666667,0.618087667 10.6777778,0.598685812 10.7,0.58205565 C10.7222222,0.570968876 10.8194444,0.515535004 10.9916667,0.415754036 C11.1638889,0.315973067 11.3277778,0.221735486 11.4833333,0.133041291 C11.6388889,0.0443470972 11.7222222,0 11.7333333,0 C11.7777778,0 11.9055556,0.128883751 12.1166667,0.386651253 C12.3277778,0.644418756 12.4722222,0.831508072 12.55,0.947919202 C12.6611111,0.936832427 12.7444444,0.93128904 12.8,0.93128904 C12.8555556,0.93128904 12.9388889,0.936832427 13.05,0.947919202 C13.3333333,0.554338714 13.5888889,0.243909034 13.8166667,0.0166301614 L13.8666667,0 C13.8888889,0 14.2333333,0.19401855 14.9,0.58205565 C14.9222222,0.598685812 14.9333333,0.618087667 14.9333333,0.640261215 C14.9333333,0.778845894 14.7916667,1.16133961 14.5083333,1.78774235 C14.6027778,1.91524026 14.6861111,2.05936832 14.7583333,2.22012655 C15.5861111,2.30327736 16,2.38919986 16,2.47789405 Z" id="Shape"></path>
            </g>
        </g>
    </g>
</svg>