<?xml version="1.0" encoding="UTF-8"?>
<svg width="128px" height="116px" viewBox="0 0 128 116" version="1.1" xmlns="http://www.w3.org/2000/svg" xmlns:xlink="http://www.w3.org/1999/xlink">
    <!-- Generator: Sketch 46.2 (44496) - http://www.bohemiancoding.com/sketch -->
    <title>4</title>
    <desc>Created with Sketch.</desc>
    <defs></defs>
    <g id="Page-1" stroke="none" stroke-width="1" fill="none" fill-rule="evenodd">
        <g id="Desktop-HD" transform="translate(-656.000000, -1758.000000)" fill-rule="nonzero">
            <g id="4" transform="translate(656.000000, 1758.000000)">
                <polygon id="Shape" fill="#D8D8D8" points="2.624 95.423 2.624 55.739 38.078 72.663 38.078 114.098"></polygon>
                <path d="M125.742,19.019 L91.461,0.058 L0,49.938 L0,96.141 L37.729,115.942 L127.089,62.508 L128,61.86 L125.742,19.019 Z M91.496,6.08 L120.244,21.96 L37.572,69.669 L5.585,52.879 L91.496,6.08 Z M5.252,58.622 L35.453,74.484 L35.453,108.817 L5.252,92.954 L5.252,58.622 Z M40.706,108.029 L40.706,73.923 L120.332,27.982 C120.332,28.245 122.223,59.286 122.223,59.286 L40.706,108.029 Z" id="Shape" fill="#232323"></path>
            </g>
        </g>
    </g>
</svg>