<?xml version="1.0" encoding="UTF-8"?>
<svg width="128px" height="126px" viewBox="0 0 128 126" version="1.1" xmlns="http://www.w3.org/2000/svg" xmlns:xlink="http://www.w3.org/1999/xlink">
    <!-- Generator: Sketch 46.2 (44496) - http://www.bohemiancoding.com/sketch -->
    <title>9</title>
    <desc>Created with Sketch.</desc>
    <defs></defs>
    <g id="Page-1" stroke="none" stroke-width="1" fill="none" fill-rule="evenodd">
        <g id="Desktop-HD" transform="translate(-656.000000, -2718.000000)" fill-rule="nonzero">
            <g id="9" transform="translate(656.000000, 2718.000000)">
                <polygon id="Shape" fill="#D8D8D8" points="82.401 1.956 82.401 90.474 125.686 111.727 125.686 25.159"></polygon>
                <path d="M105.685,99.997 L104.313,102.757 L111.206,106.211 L112.579,103.451 L105.685,99.997 Z M23.21,96.434 L15.576,97.483 L15.992,100.536 L23.626,99.487 L23.21,96.434 Z M91.898,93.103 L90.51,95.864 L97.403,99.318 L98.791,96.558 L91.898,93.103 Z M38.493,94.352 L30.844,95.385 L31.26,98.454 L38.909,97.405 L38.493,94.352 Z M69.043,90.188 L61.409,91.221 L61.825,94.29 L69.459,93.241 L69.043,90.188 Z M82.537,0.48 L0,11.738 L0,102.788 L45.463,125.52 L128,113.737 L128,23.212 L82.537,0.48 Z M43.535,119.382 L7.988,101.616 L8.343,101.57 L7.927,98.516 L4.627,98.963 L4.627,18.015 L43.536,37.477 L43.536,119.382 L43.535,119.382 Z M9.238,15.147 L80.856,5.385 L80.856,13.373 L83.94,13.373 L83.94,6.356 L118.778,23.767 L83.94,28.517 L83.94,21.084 L80.856,21.084 L80.856,28.934 L46.25,33.653 L9.238,15.147 Z M123.373,108.849 L119.471,106.906 L118.099,109.651 L119.394,110.299 L48.161,120.462 L48.161,96.157 L54.191,95.324 L53.775,92.271 L48.161,93.027 L48.161,38.063 L123.373,27.808 L123.373,108.849 L123.373,108.849 Z M84.989,89.664 L83.616,92.409 L81.873,91.545 L77.108,92.193 L76.692,89.14 L80.856,88.585 L80.856,82.771 L83.94,82.771 L83.94,89.14 L84.989,89.664 Z M80.856,36.506 L80.856,44.217 L83.94,44.217 L83.94,36.506 L80.856,36.506 Z M80.856,51.927 L80.856,59.638 L83.94,59.638 L83.94,51.927 L80.856,51.927 Z M80.856,67.349 L80.856,75.06 L83.94,75.06 L83.94,67.349 L80.856,67.349 Z" id="Shape" fill="#232323"></path>
            </g>
        </g>
    </g>
</svg>